<?xml version="1.0" encoding="UTF-8" standalone="no"?>
<svg width="30px" height="32px" viewBox="0 0 30 32" version="1.1" xmlns="http://www.w3.org/2000/svg" xmlns:xlink="http://www.w3.org/1999/xlink" xmlns:sketch="http://www.bohemiancoding.com/sketch/ns">
    <!-- Generator: Sketch 3.3.3 (12081) - http://www.bohemiancoding.com/sketch -->
    <title>iconGit</title>
    <desc>Created with Sketch.</desc>
    <defs></defs>
    <g id="1024-Simplified" stroke="none" stroke-width="1" fill="none" fill-rule="evenodd" sketch:type="MSPage">
        <g id="1024BlogPost" sketch:type="MSArtboardGroup" transform="translate(-813.000000, -2620.000000)" fill="#FFFFFF">
            <g id="footer" sketch:type="MSLayerGroup" transform="translate(0.000000, 2467.000000)">
                <g id="socialLinks" transform="translate(813.000000, 153.000000)" sketch:type="MSShapeGroup">
                    <path d="M0.576304626,29.5855395 C0.961458708,30.2260364 1.47357099,30.7053393 2.14545088,31.0576839 C2.78594786,31.4100286 3.49063718,31.6339886 4.1953265,31.7951827 C4.93139874,31.9549503 5.70028041,32.0191427 6.53192793,32.0191427 C10.8542126,32.0191427 13.0324729,30.193227 13.0324729,26.5756316 C13.0324729,25.9037517 12.9040882,25.2946377 12.6159359,24.8139083 C12.3591665,24.3017961 12.0068219,23.9180685 11.5917114,23.6612991 C11.1751744,23.4059562 10.694445,23.1819962 10.1823327,22.9894192 C9.67022044,22.7968421 9.15810816,22.6698839 8.64599589,22.5414993 C8.13245711,22.4131146 7.65315425,22.2847299 7.23661725,22.1249622 C6.82008024,21.9965776 6.46773558,21.8040005 6.21239269,21.5800405 C5.92424037,21.3246977 5.79585568,21.0037359 5.79585568,20.6528178 C5.79585568,20.1720884 5.92424037,19.8197437 6.14820034,19.5957838 C6.37216031,19.3718238 6.72450497,19.2106297 7.20523432,19.1150544 C8.67737881,18.8597115 9.86279748,18.1864051 10.7272544,17.1307977 C11.5917114,16.0737637 12.0396313,14.7599603 12.0396313,13.2564329 C12.0396313,12.7757035 11.944056,12.2949742 11.751479,11.7828619 C12.2635913,11.6544772 12.7443206,11.5260925 13.1594311,11.3663249 L13.1594311,7.74872952 C11.751479,8.32503415 10.4391021,8.61318646 9.25368344,8.61318646 C8.29365123,8.03688184 7.23661725,7.74872952 6.08400799,7.74872952 C4.41928646,7.74872952 3.00990782,8.32503415 1.89010799,9.41345106 C0.768881667,10.501868 0.192577041,11.9112466 0.192577041,13.5445852 C0.192577041,14.5046174 0.480729354,15.497459 1.02565105,16.4903007 C1.60195568,17.5145252 2.3052185,18.1550222 3.16967544,18.4431745 L3.16967544,18.5073669 C2.4336032,18.8269021 2.04987561,19.6599761 2.04987561,20.9395436 C2.04987561,21.9651946 2.4336032,22.7012669 3.23386779,23.2133792 L3.23386779,23.2775715 C1.0884169,23.9822608 0,25.3274471 0,27.3117039 C0,28.1761608 0.192577041,28.9450425 0.576304626,29.5855395 L0.576304626,29.5855395 Z M6.46773558,25.2304453 C8.42060942,25.2304453 9.41345106,25.8395594 9.41345106,27.0235516 C9.41345106,28.2731626 8.51761119,28.9122331 6.72450497,28.9122331 C4.67462935,28.9122331 3.6504048,28.3045455 3.6504048,27.1191268 C3.6504048,25.8709423 4.57905408,25.2304453 6.46773558,25.2304453 L6.46773558,25.2304453 Z M6.21239269,10.9825973 C6.91565551,10.9825973 7.46057721,11.2379402 7.81292187,11.7186696 C8.16526653,12.1993989 8.35641708,12.8070865 8.35641708,13.5445852 C8.35641708,15.1764973 7.65315425,15.9767619 6.21239269,15.9767619 C4.7388217,15.9767619 4.00274946,15.1764973 4.00274946,13.5759681 C4.00274946,11.8470543 4.7388217,10.9825973 6.21239269,10.9825973 L6.21239269,10.9825973 Z M15.1137315,4.45066939 C15.5930343,4.96278167 16.1693389,5.21955105 16.8740283,5.21955105 C17.5459082,5.21955105 18.1236393,4.96278167 18.5715592,4.45066939 C19.0508621,3.93855711 19.2762485,3.32944306 19.2762485,2.62618024 C19.2762485,1.92149092 19.0508621,1.31237687 18.6029421,0.800264592 C18.1236393,0.256769388 17.5787176,0 16.8740283,0 C16.1693389,0 15.5930343,0.256769388 15.1137315,0.800264592 C14.6330021,1.31237687 14.4090421,1.92149092 14.4090421,2.62618024 C14.4090421,3.32944306 14.6330021,3.93855711 15.1137315,4.45066939 L15.1137315,4.45066939 Z M18.8269021,23.5015315 C18.7955192,22.9580363 18.7627098,22.1563452 18.7627098,21.1007377 L18.7627098,10.1495233 C18.7627098,9.0611064 18.7955192,8.32503415 18.8269021,7.94130657 L14.8897715,7.94130657 C14.9211544,8.35641708 14.9525373,9.09391582 14.9525373,10.2137156 L14.9525373,21.1007377 C14.9525373,22.1563452 14.9211544,22.9580363 14.8897715,23.5015315 L18.8269021,23.5015315 L18.8269021,23.5015315 Z M21.61285,11.2379402 L21.9323852,11.2379402 C22.0607699,11.2707496 22.1577717,11.2707496 22.2533469,11.2707496 L22.2533469,11.334942 L22.221964,11.334942 L22.221964,17.6101005 C22.221964,18.3147898 22.2533469,18.9224774 22.2847299,19.4360162 C22.3489222,19.9795114 22.445924,20.5244331 22.6056916,21.1007377 C22.7968421,21.6442329 23.0222286,22.1249622 23.3103809,22.4773069 C23.6299162,22.8296516 24.0464532,23.1178039 24.5899484,23.3731468 C25.1034871,23.5971067 25.7425576,23.7254914 26.4800564,23.7254914 C27.7282409,23.7254914 28.7524654,23.5015315 29.5855395,23.0222286 L29.5855395,19.5315914 C29.0406178,19.915319 28.3687379,20.1078961 27.6640485,20.1078961 C26.6084411,20.1078961 26.0949023,19.3390144 26.0949023,17.7698681 L26.0949023,11.2707496 L27.5998562,11.2707496 C27.7610503,11.2707496 28.0163932,11.2707496 28.3687379,11.3021326 C28.6896996,11.334942 28.9450425,11.334942 29.1376195,11.334942 L29.1376195,7.94130657 L26.0949023,7.94130657 C26.0949023,6.46773558 26.1277117,5.47489395 26.1919041,4.99416459 L22.1577717,4.99416459 C22.221964,5.4107016 22.2533469,5.92281388 22.2533469,6.59612027 L22.2533469,7.94130657 L20.555816,7.94130657 L20.555816,11.334942 C21.0051624,11.2707496 21.3560806,11.2379402 21.61285,11.2379402 L21.61285,11.2379402 Z" id="iconGit"></path>
                </g>
            </g>
        </g>
    </g>
</svg>