<?xml version="1.0" encoding="UTF-8" standalone="no"?>
<svg width="29px" height="23px" viewBox="0 0 29 23" version="1.1" xmlns="http://www.w3.org/2000/svg" xmlns:xlink="http://www.w3.org/1999/xlink" xmlns:sketch="http://www.bohemiancoding.com/sketch/ns">
    <!-- Generator: Sketch 3.3.3 (12081) - http://www.bohemiancoding.com/sketch -->
    <title>iconTwitter</title>
    <desc>Created with Sketch.</desc>
    <defs></defs>
    <g id="1024-Simplified" stroke="none" stroke-width="1" fill="none" fill-rule="evenodd" sketch:type="MSPage">
        <g id="1024BlogPost" sketch:type="MSArtboardGroup" transform="translate(-956.000000, -2625.000000)" fill="#FFFFFF">
            <g id="footer" sketch:type="MSLayerGroup" transform="translate(0.000000, 2467.000000)">
                <g id="socialLinks" transform="translate(813.000000, 153.000000)" sketch:type="MSShapeGroup">
                    <path d="M151.837146,27.8610345 C153.887022,27.8610345 155.807086,27.5414993 157.633002,26.9010023 C159.426108,26.2276959 160.962445,25.3632389 162.243439,24.274822 C163.491624,23.1864051 164.61285,21.9382206 165.541499,20.528842 C166.437339,19.0880804 167.142028,17.6145094 167.589948,16.0781726 C168.039295,14.5418357 168.263255,13.0040724 168.263255,11.4349262 L168.263255,10.6988539 C169.383055,9.8672064 170.344513,8.87436476 171.144778,7.72175551 C170.023552,8.16967544 168.935135,8.48921068 167.813908,8.58621245 C169.063519,7.84871371 169.927976,6.79310622 170.344513,5.41653701 C169.223287,6.0884169 168.006485,6.56914626 166.694109,6.82448915 C165.541499,5.60768755 164.132121,5 162.467399,5 C160.898253,5 159.521684,5.5434952 158.400457,6.66472153 C157.280657,7.81733078 156.704353,9.16251708 156.704353,10.7630463 C156.704353,11.1795833 156.768545,11.6275032 156.86412,12.0754231 C154.49471,11.9798479 152.285066,11.3707338 150.203808,10.3151263 C148.155359,9.22670942 146.393635,7.81733078 144.952874,6.05703398 C144.440762,6.95287384 144.152609,7.91290605 144.152609,8.96994003 C144.152609,9.92997225 144.409379,10.8586215 144.857299,11.7230785 C145.338028,12.5561525 145.945715,13.2280324 146.74598,13.7729541 C145.817331,13.7401447 144.952874,13.4848018 144.121226,13.0368818 L144.121226,13.1010742 C144.121226,14.5090263 144.569146,15.7258279 145.433603,16.7828619 C146.329443,17.8398959 147.41786,18.4789664 148.763046,18.7671187 C148.250934,18.8955034 147.738822,18.9596957 147.226709,18.9596957 C146.905748,18.9596957 146.553403,18.9283128 146.138293,18.8641204 C146.52202,20.0167297 147.1939,20.9767619 148.186742,21.7142606 C149.179583,22.4817158 150.30081,22.8654434 151.548994,22.8654434 C149.436353,24.5315914 147.066942,25.331856 144.376569,25.331856 C143.864457,25.331856 143.416537,25.331856 143,25.2676637 C145.657563,26.9965776 148.634662,27.8610345 151.837146,27.8610345" id="iconTwitter"></path>
                </g>
            </g>
        </g>
    </g>
</svg>