<?xml version="1.0" encoding="UTF-8" standalone="no"?>
<svg width="27px" height="33px" viewBox="0 0 27 33" version="1.1" xmlns="http://www.w3.org/2000/svg" xmlns:xlink="http://www.w3.org/1999/xlink" xmlns:sketch="http://www.bohemiancoding.com/sketch/ns">
    <!-- Generator: Sketch 3.3.3 (12081) - http://www.bohemiancoding.com/sketch -->
    <title>iconYouTube</title>
    <desc>Created with Sketch.</desc>
    <defs></defs>
    <g id="1024-Simplified" stroke="none" stroke-width="1" fill="none" fill-rule="evenodd" sketch:type="MSPage">
        <g id="1024BlogPost" sketch:type="MSArtboardGroup" transform="translate(-886.000000, -2620.000000)" fill="#FFFFFF">
            <g id="footer" sketch:type="MSLayerGroup" transform="translate(0.000000, 2467.000000)">
                <g id="socialLinks" transform="translate(813.000000, 153.000000)" sketch:type="MSShapeGroup">
                    <path d="M73.4807294,29.0406178 C73.640497,29.7453071 73.9614587,30.3544211 74.5049539,30.833724 C75.0170662,31.2816439 75.6575632,31.5712227 76.3308696,31.6339886 C78.5390863,31.890758 81.8371464,32.0191427 86.2564329,32.0191427 C90.7071023,32.0191427 94.0051624,31.890758 96.1819962,31.6339886 C96.8866855,31.5712227 97.4943731,31.2816439 98.0064854,30.833724 C98.5514071,30.3544211 98.8709423,29.7453071 99.0635194,29.0406178 C99.3516717,27.6640485 99.5114393,25.58279 99.5114393,22.7968421 C99.5114393,19.9481284 99.3516717,17.8668699 99.0635194,16.5216836 C98.9037517,15.8169943 98.5514071,15.2093067 98.0064854,14.7285774 C97.4943731,14.2806575 96.8866855,13.9925051 96.1819962,13.8969299 C94.0051624,13.6715434 90.7071023,13.5445852 86.2564329,13.5445852 C81.8371464,13.5445852 78.5390863,13.6715434 76.3622525,13.8969299 C75.6575632,13.9925051 75.0498756,14.2806575 74.5049539,14.7285774 C73.9928416,15.2093067 73.640497,15.8169943 73.4807294,16.5216836 C73.1611941,17.8982528 73,19.9795114 73,22.7968421 C73,25.6155994 73.1611941,27.696858 73.4807294,29.0406178 L73.4807294,29.0406178 Z M75.0170662,16.6500683 L80.5561525,16.6500683 L80.5561525,18.3147898 L78.667471,18.3147898 L78.667471,28.5285055 L76.8743648,28.5285055 L76.8743648,18.3147898 L75.0170662,18.3147898 L75.0170662,16.6500683 L75.0170662,16.6500683 Z M78.4748939,3.32944306 C79.0198156,4.99559109 79.3721603,6.24377561 79.5319279,7.14104197 L79.5319279,11.9754389 L81.3250342,11.9754389 L81.3250342,7.10823255 L83.501868,0 L81.6773788,0 L80.4605772,4.70601228 L79.1795833,0 L77.2909018,0 C77.6432464,0.992841633 78.026974,2.11264146 78.4748939,3.32944306 L78.4748939,3.32944306 Z M80.8129219,19.6599761 L82.4134511,19.6599761 L82.4134511,26.1919041 C82.4134511,26.5756316 82.4134511,26.7682087 82.4462605,26.7995916 C82.4776434,27.056361 82.6060281,27.1833192 82.7986051,27.1833192 C83.1181404,27.1833192 83.470485,26.9279763 83.8228297,26.4472469 L83.8228297,19.6599761 L85.4233589,19.6599761 L85.4233589,28.5285055 L83.8228297,28.5285055 L83.8228297,27.5356638 C83.1823327,28.2731626 82.5746452,28.6568902 81.9983405,28.6568902 C81.4534188,28.6568902 81.1010742,28.4329302 80.9726895,27.9850103 C80.8771142,27.696858 80.8129219,27.280321 80.8129219,26.6712069 L80.8129219,19.6599761 L80.8129219,19.6599761 Z M84.0467897,11.2065573 C84.4947096,11.8156713 85.1038236,12.1038236 85.9040882,12.1038236 C86.7357357,12.1038236 87.3762327,11.8156713 87.7927697,11.2065573 C88.1451144,10.7586373 88.304882,10.053948 88.304882,9.09391582 L88.304882,5.9556233 C88.304882,4.99559109 88.1451144,4.29090177 87.7927697,3.84298184 C87.3762327,3.23386779 86.7357357,2.94571548 85.9040882,2.94571548 C85.1038236,2.94571548 84.4947096,3.23386779 84.0467897,3.84298184 C83.694445,4.29090177 83.5346774,4.99559109 83.5346774,5.9556233 L83.5346774,9.09391582 C83.5346774,10.0225651 83.694445,10.7258279 84.0467897,11.2065573 L84.0467897,11.2065573 Z M85.1352066,5.63608806 C85.1352066,4.80301405 85.391976,4.38647704 85.9040882,4.38647704 C86.4162005,4.38647704 86.6729699,4.80301405 86.6729699,5.63608806 L86.6729699,9.38206813 C86.6729699,10.2137156 86.4162005,10.6302527 85.9040882,10.6302527 C85.391976,10.6302527 85.1352066,10.2137156 85.1352066,9.38206813 L85.1352066,5.63608806 L85.1352066,5.63608806 Z M86.8327375,16.6500683 L88.4018838,16.6500683 L88.4018838,20.5244331 C88.9139961,19.8839361 89.4574913,19.5629744 90.0666053,19.5629744 C90.7071023,19.5629744 91.1550222,19.8839361 91.3475993,20.555816 C91.4431745,20.8767777 91.5073669,21.4530823 91.5073669,22.3489222 L91.5073669,25.8709423 C91.5073669,26.7353993 91.4431745,27.3445133 91.3475993,27.6640485 C91.1550222,28.3373549 90.7071023,28.6568902 90.0666053,28.6568902 C89.4903007,28.6568902 88.945379,28.3045455 88.4018838,27.6326656 L88.4018838,28.5285055 L86.8327375,28.5285055 L86.8327375,16.6500683 L86.8327375,16.6500683 Z M89.2021484,27.1833192 C89.6814512,27.1833192 89.9068377,26.7995916 89.9068377,25.999327 L89.9068377,22.1891546 C89.9068377,21.38889 89.6814512,21.0037359 89.2021484,21.0037359 C88.945379,21.0037359 88.6572267,21.1321206 88.4018838,21.38889 L88.4018838,26.7995916 C88.6572267,27.056361 88.945379,27.1833192 89.2021484,27.1833192 L89.2021484,27.1833192 Z M89.7456436,11.4305172 C89.9068377,11.8784372 90.2591823,12.1038236 90.835487,12.1038236 C91.4103651,12.1038236 92.0194792,11.7186696 92.6599761,10.9825973 L92.6599761,11.9754389 L94.2933147,11.9754389 L94.2933147,3.04129075 L92.6599761,3.04129075 L92.6599761,9.86137099 C92.3076315,10.3734833 91.9552868,10.6302527 91.6357516,10.6302527 C91.4431745,10.6302527 91.3147898,10.501868 91.2834069,10.2465251 C91.2505975,10.2137156 91.2505975,9.98975568 91.2505975,9.6060281 L91.2505975,3.04129075 L89.6186854,3.04129075 L89.6186854,10.085331 C89.6186854,10.694445 89.6500683,11.1423649 89.7456436,11.4305172 L89.7456436,11.4305172 Z M92.7555514,22.5414993 C92.7555514,21.61285 92.915319,20.9081606 93.2676637,20.4602407 C93.7170101,19.8511267 94.3575071,19.5629744 95.1577717,19.5629744 C95.9580363,19.5629744 96.5657238,19.8511267 97.0464532,20.4602407 C97.3659884,20.9081606 97.5271825,21.61285 97.5271825,22.5414993 L97.5271825,24.3987978 L94.3246977,24.3987978 L94.3246977,25.9679441 C94.3246977,26.7682087 94.61285,27.1833192 95.1577717,27.1833192 C95.5414993,27.1833192 95.7654592,26.9593592 95.8610345,26.5442487 C95.8938439,26.415864 95.8938439,26.0635194 95.8938439,25.4544053 L97.5271825,25.4544053 L97.5271825,25.6797918 C97.5271825,26.2874793 97.5271825,26.6070146 97.4943731,26.7353993 C97.4629902,27.056361 97.3346055,27.3758962 97.1106455,27.696858 C96.6941085,28.3373549 96.0536115,28.6568902 95.1891546,28.6568902 C94.3575071,28.6568902 93.7170101,28.3373549 93.2676637,27.7282409 C92.915319,27.3117039 92.7555514,26.6070146 92.7555514,25.6469823 L92.7555514,22.5414993 L92.7555514,22.5414993 Z M95.9252268,23.0536115 L95.9252268,22.2205375 C95.9252268,21.4202729 95.6698839,21.0037359 95.1249622,21.0037359 C94.581467,21.0037359 94.3246977,21.4202729 94.3246977,22.2205375 L94.3246977,23.0536115 L95.9252268,23.0536115 L95.9252268,23.0536115 Z" id="iconYouTube"></path>
                </g>
            </g>
        </g>
    </g>
</svg>