<?xml version="1.0" encoding="UTF-8" standalone="no"?>
<svg width="97px" height="27px" viewBox="0 0 97 27" version="1.1" xmlns="http://www.w3.org/2000/svg" xmlns:xlink="http://www.w3.org/1999/xlink" xmlns:sketch="http://www.bohemiancoding.com/sketch/ns">
    <!-- Generator: Sketch 3.3.3 (12081) - http://www.bohemiancoding.com/sketch -->
    <title>logoApereo</title>
    <desc>Created with Sketch.</desc>
    <defs></defs>
    <g id="1024-Simplified" stroke="none" stroke-width="1" fill="none" fill-rule="evenodd" sketch:type="MSPage">
        <g id="1024BlogPost" sketch:type="MSArtboardGroup" transform="translate(-40.000000, -2626.000000)" fill="#FFFFFF">
            <g id="footer" sketch:type="MSLayerGroup" transform="translate(0.000000, 2467.000000)">
                <g id="apereoFooter" transform="translate(40.000000, 158.000000)" sketch:type="MSShapeGroup">
                    <g id="logoApereo">
                        <path d="M42.1358971,10.371376 C41.8414639,10.2979516 41.4733463,10.2492551 40.9581137,10.2492551 C38.3076061,10.2492551 36.2705432,13.2084505 36.2705432,15.9231485 C36.2705432,17.170614 36.7368983,18.1978037 37.9885946,18.1978037 C39.3137214,18.1978037 40.9335607,16.5347703 41.4978994,13.5018975 L42.1358971,10.371376 L42.1358971,10.371376 Z M40.9581137,20.2749678 C40.9824383,19.5184405 41.0806503,18.5649307 41.1788878,17.4914407 L41.1052288,17.4914407 C39.9271915,19.7387162 38.3564583,20.4969363 36.8348565,20.4969363 C34.7000639,20.4969363 33.3010241,18.8336474 33.3010241,16.4368712 C33.3010241,12.376806 36.1480066,8.04802673 41.7186734,8.04802673 C43.0195012,8.04802673 44.4183125,8.29252162 45.3261903,8.58571305 L44.0993009,14.7983126 C43.7554825,16.5837225 43.5592614,18.8094281 43.6083928,20.2749678 L40.9581137,20.2749678 Z M48.2959634,17.7086343 C48.7377654,18.0755057 49.3755346,18.2957814 50.2100073,18.2957814 C52.4189668,18.2957814 54.2347732,15.3608077 54.2347732,12.6948037 C54.2347732,11.5944451 53.7438397,10.3714519 52.3453077,10.3714519 C50.897111,10.3714519 49.3266571,12.0097549 48.8114499,14.7983885 L48.2959634,17.7086343 Z M44.0258704,25.0828781 L46.3571379,12.7437533 C46.627018,11.3252173 46.8969236,9.53980996 47.0442671,8.38171595 L49.6211156,8.38171595 L49.3512101,10.1530513 L49.4003415,10.1530513 C50.4310353,8.85476118 51.9035056,8.04784707 53.4496605,8.04784707 C56.0262551,8.04784707 57.2288454,10.1511762 57.2288454,12.4747836 C57.2288454,16.6324924 54.3329853,20.4970122 50.2593672,20.4970122 C49.1547605,20.4970122 48.3202879,20.2525148 47.8787397,20.0219199 L47.8296083,20.0219199 L46.872599,25.0828781 L44.0258704,25.0828781 Z M67.9609027,20.2749678 L69.359714,12.8905793 C69.6787002,11.2030711 69.8258152,9.39318894 69.9731587,8.38171595 L72.4520237,8.38171595 C72.3783392,9.12396114 72.3044263,9.95560563 72.1818897,10.9121951 L72.2555487,10.9121951 C73.0652145,9.22186285 74.3660422,8.04807734 76.0101806,8.04807734 C76.2064016,8.04807734 76.4274042,8.07229656 76.6236253,8.09677135 L74.8070825,10.9251764 C73.1775185,11.3445679 72.1248363,13.200854 71.7155346,15.4342068 L70.8076314,20.2749678 L67.9609027,20.2749678 Z M80.9568655,10.1757042 C79.1653836,10.1757042 77.9873463,11.7653107 77.6437818,13.208577 C80.5887479,13.2575291 82.4784673,12.8417056 82.4784673,11.4231696 C82.4784673,10.6404747 81.8647433,10.1757042 80.9568655,10.1757042 Z M81.9038961,20.1419177 C81.54497,20.3466436 80.9077341,20.4725881 79.4595628,20.4725881 C76.1464791,20.4725881 74.5514721,18.4669025 74.5514721,15.5564036 C74.5514721,11.9611115 77.2017258,8.04789768 81.3247292,8.04789768 C83.6805497,8.04789768 85.1778271,9.41722849 85.1778271,11.3986949 C85.1778271,14.4557894 81.9632347,15.4342827 77.3490693,15.3363835 C77.2999633,15.7519489 77.3984547,16.5591186 77.6683348,17.0236361 C78.1346899,17.8310589 78.9934616,18.2468824 80.1223928,18.2468824 C81.4723266,18.2468824 82.7828791,17.8960719 83.6416509,17.4560292 L81.9038961,20.1419177 Z M64.0377259,10.1757042 C62.246244,10.1757042 61.0682067,11.7653107 60.7248961,13.208577 C63.6696083,13.2575291 65.5593277,12.8417056 65.5593277,11.4231696 C65.5593277,10.6404747 64.9456037,10.1757042 64.0377259,10.1757042 Z M64.9847565,20.1419177 C64.6261097,20.3466436 63.9888484,20.4725881 62.5406771,20.4725881 C59.2275934,20.4725881 57.6325864,18.4669025 57.6325864,15.5564036 C57.6325864,11.9611115 60.2828401,8.04789768 64.4058435,8.04789768 C66.7616641,8.04789768 68.2586875,9.41722849 68.2586875,11.3986949 C68.2586875,14.4557894 65.0438412,15.4342827 60.4301836,15.3363835 C60.3813315,15.7519489 60.4793151,16.5591186 60.7491952,17.0236361 C61.2155503,17.8310589 62.074576,18.2468824 63.2032532,18.2468824 C64.553187,18.2468824 65.8639934,17.8960719 66.7227652,17.4560292 L64.9847565,20.1419177 Z M87.9266229,15.507454 C87.9266229,17.1462657 88.8099477,18.295832 90.2578651,18.295832 C92.3929116,18.295832 93.8162759,15.3608583 93.8162759,12.9883013 C93.8162759,11.7653107 93.2765157,10.2491286 91.5341398,10.2491286 C89.2520037,10.2491286 87.9266229,13.2820039 87.9266229,15.507454 Z M96.7858205,12.9883013 C96.7858205,17.0236361 93.9390918,20.4968073 89.8651945,20.4968073 C86.8465693,20.4968073 84.9816568,18.4179529 84.9816568,15.5808784 C84.9816568,11.5452906 87.8038324,8.04789768 91.8774505,8.04789768 C95.0925506,8.04789768 96.7858205,10.3467747 96.7858205,12.9883013 L96.7858205,12.9883013 Z" id="apereo"></path>
                        <path d="M26.3414647,14.6706988 C26.3414647,7.39681317 20.4446515,1.5 13.170733,1.5 C5.8968131,1.5 0,7.39681317 0,14.6707317 C0,21.9446502 5.8968131,27.8414634 13.170733,27.8414634 C20.4446515,27.8414634 26.3414647,21.9446502 26.3414647,14.6706988 L26.3414647,14.6706988 Z M16.4634159,16.6463085 C16.7286283,15.6726095 16.7696091,15.0728144 16.7696091,14.6706198 C16.7696091,13.2875217 16.4141639,12.1543712 16.262121,11.6715322 C16.597303,11.716912 16.9400778,11.7404085 17.28793,11.7404085 C18.212601,11.7404085 19.0988069,11.5759324 19.9188956,11.274619 C19.921892,11.2739276 19.9246513,11.2730056 19.9274171,11.2720837 C20.0232473,11.6360568 20.4828203,12.5118907 20.4828203,14.6706198 C20.4828203,16.8295727 19.8398778,20.4416524 22.1642354,22.2831677 L19.5726569,21.241702 L18.6145849,22.2831677 C16.8548171,20.8895561 16.6815034,18.2663217 16.7159252,16.3718041 C16.4662147,17.6471656 16.0986591,19.9984112 16.6883391,21.1604978 C15.3552371,21.9363573 14.0163664,22.315303 12.4694837,22.315303 C8.24786906,22.315303 4.8253754,18.8923529 4.8253754,14.6705012 C4.8253754,10.44888 8.24786906,7.02616244 12.4694837,7.02616244 C13.3098488,7.02616244 14.3644491,7.18741171 16.6010303,7.82459854 C16.6010303,7.82459854 19.6934127,8.70642512 21.5162749,8.29890951 L20.2389115,10.2781873 C20.2389115,10.2781873 18.0762708,11.4767568 15.1504388,10.7817571 C13.5141795,10.3931349 12.9580849,10.3717127 12.4694837,10.3707907 C10.0951432,10.3668724 8.1697732,12.2959302 8.1697732,14.6705012 C8.1697732,17.0455332 10.0951432,18.9706727 12.4694837,18.9706727 C13.8689069,18.9706727 15.8515761,18.1904715 16.4634159,16.6463085 L16.4634159,16.6463085 Z"></path>
                    </g>
                </g>
            </g>
        </g>
    </g>
</svg>