<?xml version="1.0" encoding="utf-8"?>
<!-- Generator: Adobe Illustrator 19.1.0, SVG Export Plug-In . SVG Version: 6.00 Build 0)  -->
<svg version="1.1" id="oae_icon" xmlns="http://www.w3.org/2000/svg" xmlns:xlink="http://www.w3.org/1999/xlink" x="0px" y="0px"
	 viewBox="0 0 60 56" style="enable-background:new 0 0 60 56;" xml:space="preserve">
<style type="text/css">
	.st0{fill:#FFFFFF;}
</style>
<g>
	<circle class="st0" cx="30" cy="28.3" r="6"/>
	<circle class="st0" cx="15.9" cy="14.2" r="3.3"/>
	<circle class="st0" cx="30" cy="8.3" r="3.3"/>
	<circle class="st0" cx="44.1" cy="14.1" r="3.3"/>
	<circle class="st0" cx="44.1" cy="42.4" r="3.3"/>
	<circle class="st0" cx="30" cy="48.2" r="3.3"/>
	<circle class="st0" cx="50" cy="28.3" r="3.3"/>
	<circle class="st0" cx="10" cy="28.2" r="3.3"/>
	<circle class="st0" cx="16" cy="42.4" r="3.3"/>
	<circle class="st0" cx="30" cy="16.3" r="2"/>
	<circle class="st0" cx="30" cy="40.2" r="1.9"/>
	<circle class="st0" cx="42" cy="28.2" r="2"/>
	<circle class="st0" cx="18.1" cy="28.2" r="1.9"/>
	<circle class="st0" cx="38.5" cy="19.8" r="2"/>
	<circle class="st0" cx="21.6" cy="36.7" r="2"/>
	<path class="st0" d="M39.9,35.3c-0.8-0.8-2-0.8-2.8,0c-0.8,0.8-0.8,2,0,2.8c0.8,0.8,2,0.8,2.8,0C40.6,37.3,40.6,36.1,39.9,35.3z"/>
	<circle class="st0" cx="21.6" cy="19.8" r="1.9"/>
	<circle class="st0" cx="34.5" cy="17.1" r="1.9"/>
	<circle class="st0" cx="25.6" cy="39.3" r="2"/>
	<path class="st0" d="M40.4,34.5c1,0.4,2.1-0.1,2.5-1.1c0.4-1-0.1-2.1-1.1-2.5c-1-0.4-2.1,0.1-2.5,1.1C38.9,33,39.4,34.1,40.4,34.5z
		"/>
	<circle class="st0" cx="18.9" cy="23.8" r="1.9"/>
	<path class="st0" d="M41.8,25.3c1-0.4,1.5-1.6,1-2.6c-0.4-1-1.6-1.5-2.6-1c-1,0.4-1.5,1.6-1,2.6C39.7,25.3,40.8,25.8,41.8,25.3z"/>
	<circle class="st0" cx="19" cy="32.9" r="2"/>
	<path class="st0" d="M34,37.4c-1,0.4-1.5,1.6-1,2.6c0.4,1,1.6,1.5,2.6,1c1-0.4,1.5-1.6,1-2.6C36.1,37.5,34.9,37,34,37.4z"/>
	<circle class="st0" cx="25.3" cy="17.2" r="2"/>
</g>
</svg>
