<?xml version="1.0" encoding="UTF-8" standalone="no"?>
<svg width="58px" height="33px" viewBox="0 0 58 33" version="1.1" xmlns="http://www.w3.org/2000/svg" xmlns:xlink="http://www.w3.org/1999/xlink" xmlns:sketch="http://www.bohemiancoding.com/sketch/ns">
    <!-- Generator: Sketch 3.3.3 (12081) - http://www.bohemiancoding.com/sketch -->
    <title>logoOAE</title>
    <desc>Created with Sketch.</desc>
    <defs></defs>
    <g id="1024-Simplified" stroke="none" stroke-width="1" fill="none" fill-rule="evenodd" sketch:type="MSPage">
        <g id="1024BlogPost" sketch:type="MSArtboardGroup" transform="translate(-40.000000, -2526.000000)" fill="#FFFFFF">
            <g id="footer" sketch:type="MSLayerGroup" transform="translate(0.000000, 2467.000000)">
                <g id="nav" transform="translate(40.000000, 59.000000)" sketch:type="MSShapeGroup">
                    <path d="M20.5444679,16.4768908 C20.5280577,18.9137418 18.6488729,20.7968678 16.3306453,20.7968678 C14.0124177,20.7968678 12.1327257,18.9137418 12.1327257,16.5900842 C12.1327257,14.2659183 14.0124177,12.3827922 16.3306453,12.3827922 C18.6488729,12.3827922 20.5444679,14.2659183 20.5444679,16.4768908 Z M8.62360379,6.56302521 C8.74491761,7.92894998 7.72149875,8.95363695 6.46016987,8.95363695 C5.19782646,8.95363695 4.17491487,7.92894998 4.17491487,6.66429916 C4.17491487,5.39913739 5.19782646,4.37394202 6.46016987,4.37394202 C7.72149875,4.37394202 8.62360379,5.39913739 8.62360379,6.56302521 Z M18.76902,2.49579832 C18.6604894,3.7574521 17.6370706,4.78264748 16.3754881,4.78264748 C15.1136519,4.78264748 14.0904867,3.7574521 14.0904867,2.49330714 C14.0904867,1.22763697 15.1136519,0.20295 16.3754881,0.20295 C17.6370706,0.20295 18.76902,1.22763697 18.76902,2.49579832 Z M28.4071654,6.56302521 C28.5049419,7.85995964 27.4817767,8.88464662 26.2199405,8.88464662 C24.958358,8.88464662 23.9351928,7.85995964 23.9351928,6.59480042 C23.9351928,5.33014706 24.958358,4.30444328 26.2199405,4.30444328 C27.4817767,4.30444328 28.4071654,5.33014706 28.4071654,6.56302521 Z M28.4071654,26.3907563 C28.5049419,27.7333454 27.4817767,28.7580323 26.2199405,28.7580323 C24.958358,28.7580323 23.9351928,27.7333454 23.9351928,26.468692 C23.9351928,25.2035302 24.958358,24.1783349 26.2199405,24.1783349 C27.4817767,24.1783349 28.4071654,25.2035302 28.4071654,26.3907563 Z M18.5153846,30.4579832 C18.6186142,31.8353224 17.595449,32.8605178 16.3336129,32.8605178 C15.0720303,32.8605178 14.0488651,31.8353224 14.0488651,30.570669 C14.0488651,29.3055065 15.0720303,28.2803111 16.3336129,28.2803111 C17.595449,28.2803111 18.5153846,29.3055065 18.5153846,30.4579832 Z M8.8772392,26.3907563 C8.81451516,27.7333454 7.7910963,28.7580323 6.52951379,28.7580323 C5.26742401,28.7580323 4.24476606,27.7333454 4.24476606,26.468692 C4.24476606,25.2035302 5.26742401,24.1783349 6.52951379,24.1783349 C7.7910963,24.1783349 8.8772392,25.2035302 8.8772392,26.3907563 Z M4.5654373,16.7310924 C4.65233279,17.8914697 3.62891393,18.9161567 2.36733066,18.9161567 C1.10524088,18.9161567 0.0825828511,17.8914697 0.0825828511,16.6268164 C0.0825828511,15.3616546 1.10524088,14.3364592 2.36733066,14.3364592 C3.62891393,14.3364592 4.5654373,15.3616546 4.5654373,16.7310924 Z M16.4863014,6.81722689 C15.6204915,6.75713361 15.0069475,7.37128487 15.0069475,8.12702393 C15.0069475,8.88403653 15.6204915,9.49818779 16.3745496,9.49818779 C17.1301295,9.49818779 17.7429126,8.88403653 17.7429126,8.12702393 C17.7429126,7.37128487 17.1301295,6.81722689 16.4863014,6.81722689 Z M16.4863014,26.3907563 C17.1301295,26.305342 17.7429126,25.6922075 17.7429126,24.9354491 C17.7429126,24.1784365 17.1301295,23.5647937 16.3745496,23.5647937 C15.6204915,23.5647937 15.0069475,24.1784365 15.0069475,24.9354491 C15.0069475,25.6922075 15.6204915,26.3907563 16.4863014,26.3907563 Z M26.1244468,16.4768908 C26.1276172,15.7747323 25.5148341,15.1605811 24.7595079,15.1605811 C24.0044352,15.1605811 23.3921594,15.7747323 23.3921594,16.5314907 C23.3921594,17.2887575 24.0044352,17.901892 24.7595079,17.901892 C25.5148341,17.901892 26.1244468,17.2887575 26.1244468,16.4768908 Z M6.59452055,16.4768908 C6.62295308,17.2887575 7.23446804,17.901892 7.98954064,17.901892 C8.74410597,17.901892 9.35638184,17.2887575 9.35638184,16.5314907 C9.35638184,15.7747323 8.74410597,15.1605811 7.98954064,15.1605811 C7.23446804,15.1605811 6.59452055,15.7747323 6.59452055,16.4768908 Z M23.3344573,11.6470588 C23.8046466,11.0235758 23.8046466,10.1547145 23.2707441,9.62038254 C22.7370952,9.08554221 21.8709303,9.0847796 21.3372814,9.62038254 C20.8031252,10.1547145 20.8041398,11.0235758 21.3372814,11.5576536 C21.8709303,12.0937649 22.7370952,12.0937649 23.3344573,11.6470588 Z M9.38451001,21.5609244 C8.94544176,22.0391514 8.94544176,22.908267 9.47883702,23.4431073 C10.0124859,23.9787103 10.8781436,23.9787103 11.4133143,23.4431073 C11.9464559,22.908267 11.9464559,22.0391514 11.4125534,21.5048195 C10.8781436,20.9687082 10.0124859,20.9687082 9.38451001,21.5609244 Z M23.3344573,21.5609244 C22.7360807,20.9687082 21.8709303,20.970996 21.3372814,21.5048195 C20.8031252,22.0391514 20.8031252,22.908267 21.3372814,23.4431073 C21.8706767,23.9787103 22.7360807,23.9787103 23.2707441,23.4431073 C23.804393,22.908267 23.804393,22.0391514 23.3344573,21.5609244 Z M9.38451001,11.6470588 C10.0124859,12.0937903 10.8781436,12.0937903 11.4125534,11.557679 C11.9464559,11.0225844 11.9464559,10.1544857 11.4125534,9.62040796 C10.8781436,9.08455082 10.0124859,9.08556763 9.47883702,9.62040796 C8.94493449,10.1544857 8.94493449,11.023347 9.38451001,11.6470588 Z M19.0226554,10.1218487 C19.6963872,10.2890855 20.4943241,9.94998044 20.7758594,9.2481296 C21.0576484,8.54551616 20.7172697,7.74656027 20.0172359,7.46414475 C19.3169486,7.18172668 18.5195189,7.52134013 18.2382372,8.22471363 C17.9556874,8.92631027 18.2955588,9.72424935 19.0226554,10.1218487 Z M13.6963119,23.0861345 C13.0534476,22.7744298 12.2570324,23.1130264 11.9744826,23.8138605 C11.6921864,24.5174907 12.0325651,25.3154298 12.7325988,25.5988647 C13.4336471,25.8812828 14.2303159,25.5416693 14.5126121,24.8398185 C14.7936401,24.137205 14.454276,23.3382491 13.6963119,23.0861345 Z M23.5880927,21.052521 C24.3425566,21.2231895 25.1392254,20.883576 25.4215216,20.1822336 C25.7038178,19.4796201 25.3649609,18.6826979 24.6631518,18.3982462 C23.9638789,18.1153197 23.1677174,18.45595 22.8851676,19.1578008 C22.603125,19.8599059 22.9414746,20.6593701 23.5880927,21.052521 Z M9.89178082,13.9348739 C10.1473185,13.2029739 9.80795432,12.4042722 9.10690606,12.1205832 C8.40712597,11.8396903 7.60918899,12.1787954 7.32790732,12.8809004 C7.04561112,13.5832596 7.38497529,14.3822155 8.08627719,14.6646336 C8.78605727,14.9478143 9.58297972,14.607184 9.89178082,13.9348739 Z M24.6026344,14.4432773 C25.3203211,14.2014273 25.6437062,13.3976416 25.3474601,12.7016374 C25.0519748,12.0051248 24.2484579,11.680255 23.5537505,11.977671 C22.8585358,12.2735617 22.535658,13.0788727 22.8316505,13.7764021 C23.1273894,14.4711353 23.9309063,14.7957508 24.6026344,14.4432773 Z M9.1308746,21.052521 C9.89091846,20.7893943 10.21405,19.983575 9.91881836,19.2870624 C9.62282584,18.5918208 8.8188016,18.2666968 8.12485513,18.563096 C7.43040139,18.860512 7.10600171,19.6663313 7.40199423,20.3618271 C7.69773311,21.0580855 8.50226462,21.3816842 9.1308746,21.052521 Z M19.0226554,23.0861345 C18.4301885,23.2986191 18.1055352,24.1029132 18.402035,24.8014594 C18.6977738,25.4964468 19.5017981,25.8202998 20.1959982,25.5249174 C20.8909592,25.2275014 21.2138371,24.4216821 20.9178445,23.7261863 C20.6221057,23.0304363 19.8193496,22.7068376 19.0226554,23.0861345 Z M13.6963119,10.1218487 C14.3186317,9.76438779 14.6437923,8.95958527 14.3472925,8.26205586 C14.0518073,7.5663084 13.2475294,7.24220126 12.553583,7.53809202 C11.8583683,7.83398023 11.5354904,8.64030796 11.8312293,9.33732897 C12.1267146,10.033079 12.9307388,10.3561693 13.6963119,10.1218487 Z M42.8920805,15.460084 L42.8920805,15.3841006 C43.4678329,12.6931216 45.852513,10.6739977 48.7097158,10.6739977 C51.5661578,10.6739977 53.9495697,12.6931216 54.5255757,15.460084 L42.8920805,15.460084 Z M29.0523885,13.1722689 C29.2570977,12.8914726 29.491609,12.6080073 29.7559224,12.3431012 C32.100173,9.99360145 35.9009757,9.99360145 38.2452263,12.3431012 C40.5894769,14.6925882 40.5894769,18.5018563 38.2452263,20.8513458 C35.9009757,23.200843 32.100173,23.200843 29.7559224,20.8513458 C29.3453628,20.4398619 29.0067088,19.9836029 28.7399351,19.4982531 C28.3312016,20.479858 27.7591523,21.3714018 27.0606658,22.1491699 C27.2021944,22.3304157 27.3480347,22.5070859 27.5040205,22.6756216 C27.5024987,22.677401 27.5014841,22.6789262 27.5014841,22.6789262 C27.5342031,22.7127351 27.5679366,22.7460355 27.5993874,22.7778107 C27.6952616,22.878983 27.7918967,22.9758338 27.8933508,23.0721762 C28.0019068,23.1774157 28.1147745,23.2816384 28.2306859,23.3815397 C28.3108347,23.4514451 28.3917444,23.5226216 28.4767123,23.5889683 C28.6233135,23.7066636 28.7765093,23.8200376 28.9302124,23.9290901 C29.0080784,23.9847603 29.0867054,24.0389052 29.1671078,24.0920334 C29.3365363,24.2036279 29.5105302,24.3088674 29.6885822,24.4082603 C29.7575711,24.4468989 29.8252917,24.4857918 29.8965633,24.5218884 C30.0916089,24.6253485 30.2896981,24.7214367 30.4941283,24.8114241 C30.5491672,24.8348107 30.6052206,24.8581972 30.6607667,24.8813296 C30.8819368,24.9728422 31.1058969,25.0546951 31.3361978,25.1291762 C31.3770331,25.1416321 31.418883,25.1525628 31.4594646,25.1657813 C31.7052373,25.2407708 31.9563364,25.3068632 32.2102254,25.3584662 C32.2360962,25.3635502 32.2622207,25.3699052 32.2885988,25.3749893 C32.5584668,25.4286258 32.8313785,25.4703149 33.108602,25.5005649 C33.1217911,25.5015817 33.1349801,25.5015817 33.1494373,25.5036153 C33.4378208,25.5308149 33.7277261,25.6281513 34.0237186,25.6281513 L34.0262549,25.6281513 L34.028284,25.6281513 C36.2387166,25.6281513 38.2553717,24.7354178 39.8207587,23.3978086 L39.8207587,25.6281513 L42.8643836,25.6281513 L42.8643836,23.2435082 C44.3350124,24.671359 46.4176127,25.5481006 48.7097158,25.5481006 C52.2958668,25.5481006 55.3785516,23.4122981 56.7824235,20.289916 L53.3664619,20.289916 C52.275576,21.7208401 50.596256,22.6049536 48.7097158,22.6049536 C46.0120497,22.6049536 43.7361792,20.8057141 43.0054556,18.2563025 L54.4127079,18.2563025 L57.4291938,18.2563025 L57.3216017,18.2563025 L57.3216017,18.220483 C57.5413007,17.7057246 57.5963396,17.1790187 57.5963396,16.6396027 C57.5963396,11.7215628 53.6170537,7.73263002 48.7097158,7.73263002 C45.6587356,7.73263002 42.9699466,9.27385481 41.3687463,11.6201363 C39.7680533,9.27385481 37.0790107,7.73263002 34.028284,7.73263002 C34.0272695,7.73263002 34.0267622,7.73313842 34.0262549,7.73313842 C34.0252404,7.73313842 34.0237186,7.73263002 34.0237186,7.73263002 C33.7558796,7.73263002 33.492606,7.74813632 33.2333907,7.77101447 C33.2082808,7.77253968 33.1829172,7.77406489 33.1567928,7.77686111 C32.8998601,7.80228128 32.6447029,7.83888632 32.3941111,7.88515103 C32.3730594,7.88972666 32.351754,7.89353968 32.3304486,7.89862372 C32.0704723,7.94768464 31.8153151,8.01021826 31.5642161,8.08266574 C30.0675135,8.516588 28.7389713,9.33537162 27.6780144,10.4225922 C28.2790796,11.253847 28.7484572,12.1839226 29.0523885,13.1722689 L29.0523885,13.1722689 Z" id="logoOAE"></path>
                </g>
            </g>
        </g>
    </g>
</svg>