<?xml version="1.0" encoding="UTF-8" standalone="no"?>
<svg width="324px" height="476px" viewBox="0 0 324 476" version="1.1" xmlns="http://www.w3.org/2000/svg" xmlns:xlink="http://www.w3.org/1999/xlink" xmlns:sketch="http://www.bohemiancoding.com/sketch/ns">
    <!-- Generator: Sketch 3.3.3 (12081) - http://www.bohemiancoding.com/sketch -->
    <title>450</title>
    <desc>Created with Sketch.</desc>
    <defs>
        <filter x="-50%" y="-50%" width="200%" height="200%" filterUnits="objectBoundingBox" id="filter-1">
            <feGaussianBlur stdDeviation="0" in="SourceGraphic" result="blur"></feGaussianBlur>
        </filter>
        <filter x="-50%" y="-50%" width="200%" height="200%" filterUnits="objectBoundingBox" id="filter-2">
            <feGaussianBlur stdDeviation="0" in="SourceGraphic" result="blur"></feGaussianBlur>
        </filter>
        <circle id="path-3" cx="27" cy="27" r="27"></circle>
    </defs>
    <g id="Page-1" stroke="none" stroke-width="1" fill="none" fill-rule="evenodd" sketch:type="MSPage">
        <g id="450Diagram" sketch:type="MSArtboardGroup" transform="translate(-62.000000, -177.000000)">
            <g id="450" sketch:type="MSLayerGroup" transform="translate(62.000000, 84.000000)">
                <g id="bgLines" transform="translate(0.500000, 0.000000)">
                    <g transform="translate(20.312500, 0.961538)" sketch:type="MSShapeGroup">
                        <path d="M142.1875,223.268666 C142.1875,329.530617 192.874607,499.412589 275.915338,499.4126" id="lineBGBottomRight" stroke="#C6C6C2" stroke-width="3" stroke-linecap="round" stroke-linejoin="round" opacity="0.2" filter="url(#filter-1)"></path>
                        <path d="M141.6875,223.112368 C141.6875,328.179779 91.5336391,499.256291 7.95966241,499.256302" id="lineBGBottomLeft" stroke="#C6C6C2" stroke-width="3" stroke-linecap="round" stroke-linejoin="round" opacity="0.2" filter="url(#filter-2)"></path>
                        <path d="M7.19254662,493.07697 C7.19254662,441.000257 46.8266121,364.000006 140.920384,364" id="lineCurvedBottomLeft" stroke="#C6C6C2" stroke-width="3" stroke-linecap="round" stroke-linejoin="round"></path>
                        <path d="M275.727838,493.07697 C275.727838,441.000257 236.093772,364.000006 142,364" id="lineCurvedBottomRight" stroke="#C6C6C2" stroke-width="3" stroke-linecap="round" stroke-linejoin="round"></path>
                        <path d="M141,104.847328 L141,399.152672 C141,399.620638 141.671573,400 142.5,400 C143.328427,400 144,399.620638 144,399.152672 L144,104.847328 C144,104.379362 143.328427,104 142.5,104 C141.671573,104 141,104.379362 141,104.847328 L141,104.847328 Z" id="lineCenter" fill="#C7C7C2"></path>
                        <ellipse id="circleGroup" fill="#C6C6C2" cx="142.5" cy="99.5" rx="6.5" ry="6.5"></ellipse>
                        <circle id="circleGroup" fill="#C6C6C2" cx="7.19254662" cy="494.916039" r="6.5"></circle>
                        <circle id="circleGroup" fill="#C6C6C2" cx="142.5" cy="494.5" r="6.5"></circle>
                        <circle id="circleGroup" fill="#C6C6C2" cx="277.807453" cy="494.916039" r="6.5"></circle>
                    </g>
                    <g id="iconGroup" transform="translate(0.000000, 512.000000)">
                        <g id="Imported-Layers">
                            <mask id="mask-4" sketch:name="Mask" fill="white">
                                <use xlink:href="#path-3"></use>
                            </mask>
                            <use id="Mask" fill="#C6C6C2" sketch:type="MSShapeGroup" xlink:href="#path-3"></use>
                            <g mask="url(#mask-4)" id="male" sketch:type="MSShapeGroup">
                                <g transform="translate(-80.373626, 7.868132)">
                                    <path d="M105.645656,51.0438541 C106.192815,45.7305484 105.988142,38.9545143 105.234264,34.8412734 C104.979787,32.0829663 104.298227,27.9390245 102.473228,25.5129696 C101.157182,23.4723818 97.6347628,22.3241675 91.0572614,22.3241675 L90.9139904,22.3241675 C83.9216855,22.3241675 80.3822106,23.6204285 79.272884,25.9073059 C77.6566512,28.3695196 77.0323992,32.2269195 76.7915675,34.8405911 C76.0376894,38.9545143 75.8336988,45.7305484 76.3801752,51.0438541 C76.2287173,51.5391623 76.1277454,52.0842742 76.0915866,52.660087 C75.9442221,55.0506652 76.9628104,57.0571409 78.3648191,57.1410567 C79.2251271,57.1942716 80.0301734,56.5127112 80.5595937,55.4286277 C80.8345375,55.0158708 80.9061729,54.6228991 80.9061729,54.6228991 C80.9061729,54.6228991 80.9068552,54.5874225 80.9068552,54.5239739 C81.0480794,54.0457218 81.1422289,53.5210772 81.1770233,52.9684606 C81.2302382,52.1156573 81.1326775,51.3126577 80.9239113,50.6270039 C80.9211823,47.5432671 80.8843412,43.2069328 80.7206029,39.586271 C81.1879392,38.7907761 81.6286679,37.8847579 82.0373313,36.9248424 C82.7277608,41.4358309 82.5142189,46.5014826 82.3893685,48.4827152 C82.3764059,48.5475283 82.36549,48.6137058 82.3559386,48.6805656 C82.2099387,49.7284903 82.3266021,53.6800397 82.7223029,62.2687925 C82.8642094,65.3504825 84.3706011,85.176454 84.6475917,88.8100784 C84.1584237,89.2480781 83.8623304,89.8136573 83.8623304,90.4324514 C83.8623304,91.8208152 85.3475726,92.0084319 87.1780296,92.0084319 C89.0105334,92.0084319 90.4957757,91.8208152 90.4957757,90.4324514 C90.4957757,90.0865544 90.4029907,89.7570312 90.2358412,89.4561622 L90.2720001,89.3824799 L90.3177103,55.0267867 C90.3177103,55.0267867 90.2856449,53.3109465 90.9863081,52.7283112 C91.6883358,53.3109465 91.6569527,55.0267867 91.6569527,55.0267867 L91.7026629,89.3824799 L91.7381395,89.4561622 C91.5709901,89.7570312 91.4782051,90.0865544 91.4782051,90.4324514 C91.4782051,91.8208152 92.9641296,92.0084319 94.7945866,92.0084319 C96.6270904,92.0084319 98.1123326,91.8208152 98.1123326,90.4324514 C98.1123326,89.8136573 97.8155571,89.2480781 97.3263891,88.8100784 C97.6033796,85.176454 99.1097714,65.3504825 99.2516779,62.2687925 C99.6473786,53.6800397 99.7640421,49.7284903 99.6187244,48.6805656 C99.6078085,48.6068834 99.5948459,48.5338834 99.5798366,48.4622479 C99.4549862,46.457819 99.2421265,41.351915 99.9482476,36.830693 C100.367145,37.8254027 100.821518,38.7641686 101.305228,39.5855888 C101.14149,43.2062505 101.103967,47.5432671 101.10192,50.6276861 C100.892471,51.3126577 100.795593,52.1156573 100.848126,52.9684606 C100.88292,53.5210772 100.977752,54.0457218 101.117612,54.5232917 C101.118976,54.5874225 101.118976,54.6228991 101.118976,54.6228991 C101.118976,54.6228991 101.191976,55.0158708 101.466238,55.4286277 C101.994293,56.5127112 102.79934,57.1942716 103.66033,57.1410567 C105.063703,57.0571409 106.080245,55.0506652 105.934245,52.660087 C105.898086,52.0842742 105.796432,51.5391623 105.645656,51.0438541 Z M91.0402053,21.0783924 C94.0004562,21.0783924 96.3992213,18.1665807 96.3992213,14.5745732 C96.3992213,10.9832479 94.0004562,8.07143621 91.0402053,8.07143621 C88.0826834,8.07143621 85.683236,10.9832479 85.683236,14.5745732 C85.683236,18.1665807 88.0826834,21.0783924 91.0402053,21.0783924 Z" fill="#FFFFFF"></path>
                                    <path d="M138.645656,51.0438541 C139.192815,45.7305484 138.988142,38.9545143 138.234264,34.8412734 C137.979787,32.0829663 137.298227,27.9390245 135.473228,25.5129696 C134.157182,23.4723818 130.634763,22.3241675 124.057261,22.3241675 L123.91399,22.3241675 C116.921685,22.3241675 113.382211,23.6204285 112.272884,25.9073059 C110.656651,28.3695196 110.032399,32.2269195 109.791568,34.8405911 C109.037689,38.9545143 108.833699,45.7305484 109.380175,51.0438541 C109.228717,51.5391623 109.127745,52.0842742 109.091587,52.660087 C108.944222,55.0506652 109.96281,57.0571409 111.364819,57.1410567 C112.225127,57.1942716 113.030173,56.5127112 113.559594,55.4286277 C113.834537,55.0158708 113.906173,54.6228991 113.906173,54.6228991 C113.906173,54.6228991 113.906855,54.5874225 113.906855,54.5239739 C114.048079,54.0457218 114.142229,53.5210772 114.177023,52.9684606 C114.230238,52.1156573 114.132678,51.3126577 113.923911,50.6270039 C113.921182,47.5432671 113.884341,43.2069328 113.720603,39.586271 C114.187939,38.7907761 114.628668,37.8847579 115.037331,36.9248424 C115.727761,41.4358309 115.514219,46.5014826 115.389368,48.4827152 C115.376406,48.5475283 115.36549,48.6137058 115.355939,48.6805656 C115.209939,49.7284903 115.326602,53.6800397 115.722303,62.2687925 C115.864209,65.3504825 117.370601,85.176454 117.647592,88.8100784 C117.158424,89.2480781 116.86233,89.8136573 116.86233,90.4324514 C116.86233,91.8208152 118.347573,92.0084319 120.17803,92.0084319 C122.010533,92.0084319 123.495776,91.8208152 123.495776,90.4324514 C123.495776,90.0865544 123.402991,89.7570312 123.235841,89.4561622 L123.272,89.3824799 L123.31771,55.0267867 C123.31771,55.0267867 123.285645,53.3109465 123.986308,52.7283112 C124.688336,53.3109465 124.656953,55.0267867 124.656953,55.0267867 L124.702663,89.3824799 L124.73814,89.4561622 C124.57099,89.7570312 124.478205,90.0865544 124.478205,90.4324514 C124.478205,91.8208152 125.96413,92.0084319 127.794587,92.0084319 C129.62709,92.0084319 131.112333,91.8208152 131.112333,90.4324514 C131.112333,89.8136573 130.815557,89.2480781 130.326389,88.8100784 C130.60338,85.176454 132.109771,65.3504825 132.251678,62.2687925 C132.647379,53.6800397 132.764042,49.7284903 132.618724,48.6805656 C132.607809,48.6068834 132.594846,48.5338834 132.579837,48.4622479 C132.454986,46.457819 132.242126,41.351915 132.948248,36.830693 C133.367145,37.8254027 133.821518,38.7641686 134.305228,39.5855888 C134.14149,43.2062505 134.103967,47.5432671 134.10192,50.6276861 C133.892471,51.3126577 133.795593,52.1156573 133.848126,52.9684606 C133.88292,53.5210772 133.977752,54.0457218 134.117612,54.5232917 C134.118976,54.5874225 134.118976,54.6228991 134.118976,54.6228991 C134.118976,54.6228991 134.191976,55.0158708 134.466238,55.4286277 C134.994293,56.5127112 135.79934,57.1942716 136.66033,57.1410567 C138.063703,57.0571409 139.080245,55.0506652 138.934245,52.660087 C138.898086,52.0842742 138.796432,51.5391623 138.645656,51.0438541 Z M124.040205,21.0783924 C127.000456,21.0783924 129.399221,18.1665807 129.399221,14.5745732 C129.399221,10.9832479 127.000456,8.07143621 124.040205,8.07143621 C121.082683,8.07143621 118.683236,10.9832479 118.683236,14.5745732 C118.683236,18.1665807 121.082683,21.0783924 124.040205,21.0783924 Z" fill="#FFFFFF"></path>
                                    <path d="M129.353273,63.5111426 C130.155115,55.7246851 129.855174,45.7946523 128.750393,39.7668465 C128.377467,35.7246473 127.378665,29.6518503 124.704194,26.0965546 C122.775576,23.106147 117.613599,21.4234804 107.974509,21.4234804 L107.76455,21.4234804 C97.5175802,21.4234804 92.3306077,23.3231041 90.7049298,26.6744401 C88.336399,30.2827253 87.4215802,35.9356055 87.0686502,39.7658467 C85.963869,45.7946523 85.6649282,55.7246851 86.4657696,63.5111426 C86.2438136,64.2369988 86.0958429,65.0358406 86.0428534,65.8796734 C85.8268962,69.3829794 87.3196004,72.3233969 89.3741934,72.4463725 C90.6349437,72.5243571 91.8147099,71.5255549 92.5905562,69.9368696 C92.9934764,69.3319895 93.0984556,68.7561036 93.0984556,68.7561036 C93.0984556,68.7561036 93.0994554,68.7041139 93.0994554,68.6111323 C93.3064144,67.9102711 93.4443871,67.1414234 93.495377,66.3315839 C93.5733615,65.0818315 93.4303899,63.9050646 93.1244505,62.9002636 C93.1204513,58.3811589 93.066462,52.0264178 92.8265095,46.7204689 C93.5113738,45.5546999 94.1572459,44.2269629 94.7561272,42.8202416 C95.7679268,49.430932 95.4549888,56.8544613 95.272025,59.7578862 C95.2530288,59.8528673 95.237032,59.9498481 95.2230347,60.0478287 C95.0090771,61.5835245 95.1800433,67.3743773 95.7599284,79.9608838 C95.9678872,84.4769892 98.1754499,113.531233 98.5813694,118.856178 C97.8645114,119.498051 97.4305974,120.326887 97.4305974,121.233707 C97.4305974,123.268304 99.6071662,123.54325 102.289635,123.54325 C104.975103,123.54325 107.151672,123.268304 107.151672,121.233707 C107.151672,120.726808 107.015699,120.243904 106.770747,119.802991 L106.823737,119.695012 L106.890723,69.3479863 C106.890723,69.3479863 106.843733,66.8334844 107.870529,65.9796536 C108.899325,66.8334844 108.853335,69.3479863 108.853335,69.3479863 L108.920321,119.695012 L108.972311,119.802991 C108.727359,120.243904 108.591386,120.726808 108.591386,121.233707 C108.591386,123.268304 110.768955,123.54325 113.451424,123.54325 C116.136892,123.54325 118.31346,123.268304 118.31346,121.233707 C118.31346,120.326887 117.878547,119.498051 117.161689,118.856178 C117.567608,113.531233 119.775171,84.4769892 119.98313,79.9608838 C120.563015,67.3743773 120.733981,61.5835245 120.521023,60.0478287 C120.505026,59.9398501 120.48603,59.8328713 120.464034,59.7278921 C120.281071,56.790474 119.969132,49.3079563 121.003927,42.6822689 C121.617806,44.1399801 122.283674,45.5157076 122.992533,46.7194691 C122.752581,52.025418 122.697592,58.3811589 122.694592,62.9012634 C122.387653,63.9050646 122.245681,65.0818315 122.322666,66.3315839 C122.373656,67.1414234 122.512629,67.9102711 122.717588,68.6101325 C122.719588,68.7041139 122.719588,68.7561036 122.719588,68.7561036 C122.719588,68.7561036 122.826566,69.3319895 123.228487,69.9368696 C124.002333,71.5255549 125.1821,72.5243571 126.44385,72.4463725 C128.500442,72.3233969 129.990147,69.3829794 129.77619,65.8796734 C129.7232,65.0358406 129.57423,64.2369988 129.353273,63.5111426 Z M107.949514,19.5978421 C112.287654,19.5978421 115.802958,15.3306874 115.802958,10.0667302 C115.802958,4.80377283 112.287654,0.536618173 107.949514,0.536618173 C103.615372,0.536618173 100.099069,4.80377283 100.099069,10.0667302 C100.099069,15.3306874 103.615372,19.5978421 107.949514,19.5978421 Z" fill="#333333"></path>
                                </g>
                            </g>
                        </g>
                    </g>
                    <g id="iconInstitution" transform="translate(130.000000, 516.000000)" sketch:type="MSShapeGroup">
                        <path d="M22.8862374,50.387611 L58.5530303,50.387611 L58.5530303,46.8093409 C58.5530303,46.3064974 58.4035384,45.9024267 58.0019183,45.5499873 C57.6025294,45.1975479 57.1518224,44.9955126 56.6497973,44.9955126 L25.2565332,44.9955126 C24.895904,47.1655797 24.1587213,48.8850544 22.8862374,50.387611 Z M22.7954545,23.4273613 L22.7954545,17.9878788 L29.9576796,17.9878788 L29.9576796,39.6034141 L33.5120174,39.6034141 L33.5120174,17.9878788 L40.6742424,17.9878788 L40.6742424,39.6034141 L44.2798984,39.6034141 L44.2798984,17.9878788 L51.4421234,17.9878788 L51.4421234,39.6034141 L53.0954595,39.6034141 C53.5952534,39.6034141 54.0459604,39.8054495 54.4475804,40.1578889 C54.7978824,40.5103283 54.9986925,40.914399 54.9986925,41.367856 L54.9986925,43.1816843 L25.4660986,43.1816843 C25.5140499,42.5105825 25.5363408,41.8002158 25.5363408,41.0456241 L25.5363408,27.528931 L25.5363408,23.9243791 L22.7954545,23.4273613 Z M19.2388855,23.2089122 L19.2388855,17.9878788 L12.0788917,17.9878788 L12.0788917,23.2081663 C14.4039411,23.207272 16.3712451,23.2071287 17.8880124,23.2078739 C18.3918975,23.2081214 18.842924,23.2084663 19.2388855,23.2089122 Z M8.52232263,14.4118535 C8.52232263,14.8653105 8.72313267,15.3187676 9.07343465,15.671207 C9.47282352,16.0236464 9.92353051,16.1740505 10.4255556,16.1740505 L53.0954595,16.1740505 C53.5952534,16.1740505 54.0459604,16.0236464 54.4475804,15.671207 C54.7978824,15.3187676 54.9986925,14.8653105 54.9986925,14.4118535 L58.5530303,14.4118535 L58.5530303,10.7819521 L31.7605075,0 L4.96575357,10.7819521 L4.96575357,14.4118535 L8.52232263,14.4118535 Z M31.9583333,12.72 C34.0918619,12.72 35.8214286,10.9798801 35.8214286,8.83333333 C35.8214286,6.68678661 34.0918619,4.94666667 31.9583333,4.94666667 C29.8248047,4.94666667 28.0952381,6.68678661 28.0952381,8.83333333 C28.0952381,10.9798801 29.8248047,12.72 31.9583333,12.72 Z" id="iconUniversity" fill="#C6C6C2"></path>
                        <path d="M21.0714286,27.7473199 L21.0714286,41.0374024 C21.0714286,46.2548259 20.2064895,48.0262691 14.6131321,50.8050713 C14.3654412,50.9290131 11.5143754,52.3596182 11.216229,52.5204792 L10.9377406,52.6707916 L10.6520443,52.8217633 L10.3670032,52.6707916 L10.0813069,52.5204792 C8.90575827,51.9007698 7.71251743,51.3562168 6.78597018,50.8993462 C1.66112985,48.3697462 0.102890981,46.5739082 0.102890981,41.0374024 L0.102890975,27.7473199 C0.102890975,27.7473199 20.9587242,27.7268826 21.0714286,27.7473199 Z" id="iconUniversitySheild" fill="#333333"></path>
                    </g>
                    <g id="iconNetwork" transform="translate(272.000000, 512.000000)" sketch:type="MSShapeGroup">
                        <path d="M36.9273504,25.2485162 C37.7593066,25.898747 38.7706517,26.5002594 39.9845008,27.0969442 C39.8717137,27.0415593 41.5330039,27.8380202 41.9915148,28.0748638 C42.0558566,28.1081855 42.0558566,28.1081855 42.1195232,28.141516 L42.3137633,28.2432915 L42.4971728,28.3400484 L44.0322218,29.1497392 L45.5680344,28.3415036 L45.759904,28.2405305 L45.9724877,28.1264062 C46.0055521,28.1086402 46.2642108,27.9778129 46.6324855,27.7926465 L46.6324855,27.7926465 C47.0988673,29.6006673 47.3321918,31.4884867 47.3321918,33.4502183 C47.3321918,37.4645197 46.3551774,41.1165939 44.4034366,44.5141921 C42.4013579,47.9094978 39.7311569,50.5849345 36.3928336,52.5405022 C33.0018843,54.4960699 29.3043309,55.475 25.3505115,55.475 C21.3440659,55.475 17.6465125,54.4960699 14.2578513,52.5405022 C10.919528,50.5849345 8.24932703,47.9094978 6.24496022,44.5141921 C5.09906515,42.5194133 4.28995018,40.4369158 3.81715224,38.2448929 L3.81715224,38.2448929 C4.31896546,38.4854395 5.7140313,39.1577946 6.16436464,39.3904141 C6.24414456,39.4317311 6.24414456,39.4317311 6.32298022,39.4730028 L6.56833743,39.6015622 L6.79850865,39.7229902 L8.96001699,40.8631189 L11.1226007,39.7250393 L11.3646198,39.5976744 L11.6365171,39.4517267 C11.6859936,39.4251422 12.2575244,39.1366722 12.9743289,38.7772282 C13.5028599,38.5121945 14.1898456,38.168614 14.3867174,38.0705069 C15.1602674,37.6877886 15.866722,37.3055057 16.5106991,36.9168548 C16.5161961,36.9669774 16.5161961,37.0288735 16.5161961,37.1022926 C16.5688222,37.2054585 16.5688222,37.3086245 16.6191601,37.4117904 C16.6717862,37.4645197 16.7221242,37.5149563 16.8250882,37.4645197 C16.8488013,37.2938828 16.8161532,37.0667743 16.7211641,36.788227 C16.9494118,36.646943 17.1695326,36.5047256 17.3817456,36.3612517 C17.4880574,36.4751405 17.577095,36.6449432 17.6968505,36.845524 C17.8524406,37.1022926 17.8524406,37.2581878 17.6968505,37.2581878 C17.8524406,37.2581878 18.0583687,37.3086245 18.2620087,37.5149563 C18.4679368,37.7212882 18.6738649,37.9276201 18.776829,38.0812227 C18.879793,38.2348253 18.930131,38.4938865 18.9827571,38.853821 C19.0330951,39.1610262 19.083433,39.4200873 19.1360591,39.5209607 C19.1863971,39.6768559 19.2390232,39.7800218 19.3923252,39.9336245 C19.4952892,40.0367904 19.6485913,40.1399563 19.7515553,40.190393 C19.8545194,40.2431223 20.0101095,40.3462882 20.2137495,40.3967249 C20.3693396,40.4998908 20.5226416,40.6030568 20.5729796,40.6030568 C20.6759437,40.6534934 20.8315338,40.7566594 21.0877998,40.910262 C21.3440659,41.0661572 21.549994,41.2197598 21.703296,41.2724891 C21.9092241,41.3229258 22.0625262,41.375655 22.1654902,41.375655 C22.2684543,41.375655 22.4240444,41.3229258 22.5773464,41.2724891 C22.7306484,41.2724891 22.8862386,41.2197598 22.9869145,41.2197598 C23.2454687,41.1693231 23.5520727,41.3229258 23.8106269,41.6324236 C24.066893,41.9396288 24.270533,42.1459607 24.4261231,42.2491266 C25.0942454,42.6090611 25.6067775,42.7122271 25.9660077,42.5586245 C25.9660077,42.5586245 25.9660077,42.6617904 26.0186337,42.7649563 C26.0689717,42.8658297 26.1215978,43.0217249 26.2222737,43.2280568 C26.3252378,43.3816594 26.4282018,43.535262 26.4808279,43.6384279 C26.5311659,43.7415939 26.5837919,43.7920306 26.6341299,43.8447598 C26.737094,43.9983624 26.890396,44.1015284 27.1489502,44.3078603 C27.4052162,44.4614629 27.5585183,44.6173581 27.6614823,44.7182314 C27.8147844,44.6677948 27.8674104,44.5646288 27.8674104,44.4614629 C27.8147844,44.6173581 27.8674104,44.8213974 28.0733385,45.0277293 C28.2769785,45.2844978 28.4325686,45.3876638 28.5858707,45.3372271 C28.8421367,45.2844978 28.9954388,44.9772926 28.9954388,44.4110262 C28.3799426,44.7182314 27.9177484,44.5141921 27.6088563,43.8951965 C27.6088563,43.8951965 27.5585183,43.8447598 27.5081803,43.7415939 C27.4555542,43.6384279 27.4555542,43.5879913 27.4052162,43.4848253 C27.3525902,43.4320961 27.3525902,43.3289301 27.3525902,43.2280568 C27.3022522,43.1753275 27.3022522,43.0721616 27.3525902,43.0217249 C27.3525902,42.9689956 27.4052162,42.9689956 27.4555542,42.9689956 C27.6614823,42.9689956 27.7644464,42.918559 27.7644464,42.8658297 C27.7644464,42.7649563 27.7644464,42.6617904 27.7118203,42.5058952 C27.6614823,42.2995633 27.6088563,42.19869 27.6088563,42.095524 C27.5585183,41.9396288 27.4555542,41.7860262 27.3022522,41.5292576 C27.0963241,41.3229258 26.9933601,41.1693231 26.9430221,41.1165939 C26.840058,41.2724891 26.6844679,41.375655 26.4808279,41.3229258 C26.2748998,41.3229258 26.1215978,41.2197598 26.0186337,41.0661572 C26.0186337,41.1165939 26.0186337,41.1693231 25.9660077,41.2197598 C25.9660077,41.3229258 25.9156697,41.375655 25.9156697,41.4260917 C25.6594036,41.4260917 25.5564396,41.4260917 25.5038135,41.375655 C25.5038135,41.3229258 25.5564396,41.1693231 25.5564396,40.910262 C25.6067775,40.6030568 25.6594036,40.3967249 25.6594036,40.2431223 C25.7097416,40.190393 25.7600796,40.0367904 25.8127056,39.8831878 C25.9156697,39.7272926 25.9660077,39.6241266 26.0689717,39.470524 C26.1215978,39.3673581 26.1215978,39.2641921 26.1719358,39.1105895 C26.1719358,39.0074236 26.1215978,38.9042576 26.0186337,38.853821 C25.9156697,38.8010917 25.7600796,38.750655 25.5038135,38.8010917 C25.1445834,38.8010917 24.9386553,39.0074236 24.7853532,39.3673581 C24.7853532,39.4200873 24.7350153,39.5209607 24.6823892,39.6768559 C24.6823892,39.7800218 24.6320512,39.9336245 24.5794251,39.9840611 C24.4764611,40.0872271 24.4261231,40.1399563 24.270533,40.190393 C24.169857,40.2431223 23.9113029,40.2431223 23.6046988,40.2431223 C23.2958067,40.2431223 23.0395406,40.190393 22.9365765,40.0872271 C22.6803105,39.9336245 22.4743824,39.6768559 22.2684543,39.2641921 C22.1151522,38.853821 22.0121882,38.4938865 22.0121882,38.1843886 C22.0121882,38.030786 22.0121882,37.7717249 22.0625262,37.4645197 C22.1151522,37.1550218 22.1654902,36.8982533 22.1654902,36.7423581 C22.1654902,36.5887555 22.1151522,36.3319869 22.0121882,36.0224891 C22.0625262,35.9720524 22.1654902,35.9193231 22.2684543,35.7657205 C22.3714183,35.6121179 22.4743824,35.508952 22.5247203,35.4562227 C22.5773464,35.4562227 22.6276844,35.405786 22.6803105,35.405786 L22.7832745,35.405786 C22.8336125,35.405786 22.8862386,35.405786 22.9365765,35.3530568 C22.9365765,35.3026201 22.9869145,35.2498908 22.9869145,35.1994541 C22.9869145,35.1994541 22.9365765,35.1490175 22.8862386,35.0962882 C22.8336125,35.0458515 22.7832745,35.0458515 22.7832745,35.0458515 C22.9365765,35.0962882 23.1928426,35.0458515 23.6046988,34.9931223 C24.0142669,34.8899563 24.270533,34.8899563 24.373497,35.0458515 C24.6823892,35.2498908 24.8883173,35.1994541 24.9912813,34.9426856 C24.9912813,34.9426856 24.9912813,34.8395197 24.9386553,34.685917 C24.8883173,34.5300218 24.8883173,34.3764192 24.9386553,34.32369 C25.0416193,34.8395197 25.2978854,34.8899563 25.7600796,34.5827511 C25.8127056,34.6331878 25.9660077,34.685917 26.2222737,34.685917 C26.4282018,34.7363537 26.5837919,34.7867904 26.6844679,34.8395197 C26.737094,34.8899563 26.840058,34.9426856 26.890396,34.9931223 C26.9933601,35.0962882 27.0459861,35.0962882 27.0459861,35.1490175 L27.1992881,35.1490175 C27.2496261,35.0962882 27.3525902,35.0458515 27.4555542,34.9426856 C27.6614823,35.1994541 27.7644464,35.4562227 27.8147844,35.6121179 C28.0207124,36.3824236 28.1740145,36.7950873 28.3296046,36.8982533 C28.4829066,36.94869 28.5858707,36.94869 28.6362086,36.94869 C28.7391727,36.94869 28.7917988,36.845524 28.7917988,36.6919214 L28.7917988,36.2792576 C28.7917988,36.1760917 28.7391727,36.0224891 28.7391727,35.9193231 L28.6888347,35.6625546 L28.6888347,35.1490175 L28.6888347,34.9426856 C28.3799426,34.8899563 28.2266405,34.7867904 28.1740145,34.5827511 C28.0733385,34.4268559 28.1236765,34.2228166 28.1740145,34.0669214 C28.2769785,33.8605895 28.4325686,33.7069869 28.6362086,33.5533843 C28.6362086,33.500655 28.7391727,33.500655 28.8421367,33.4502183 C28.9954388,33.3974891 29.1510289,33.2966157 29.3043309,33.2438865 C29.459921,33.1407205 29.560597,33.0902838 29.663561,32.9871179 C30.0754172,32.6271834 30.1783813,32.3176856 30.0754172,32.0081878 C30.2287193,32.0081878 30.3316833,31.9050218 30.3843094,31.7514192 C30.3843094,31.7514192 30.3316833,31.7009825 30.2813453,31.6482533 C30.1783813,31.5978166 30.1257552,31.5450873 30.0227912,31.4946507 C29.9724532,31.4946507 29.9221152,31.4419214 29.9221152,31.4419214 C30.0754172,31.341048 30.1257552,31.2378821 29.9724532,30.978821 C30.0754172,30.9283843 30.1257552,30.8252183 30.1783813,30.6716157 C30.2287193,30.5157205 30.2813453,30.4148472 30.3843094,30.4148472 C30.5879494,30.6188865 30.7938775,30.6716157 30.9998056,30.4652838 C31.1531076,30.3116812 31.1531076,30.155786 31.0501436,30.0021834 C31.1027696,29.8485808 31.3086977,29.7454148 31.6153018,29.6926856 C31.9241939,29.6422489 32.077496,29.539083 32.130122,29.435917 C32.2834241,29.435917 32.333762,29.435917 32.3863881,29.3854803 L32.3863881,29.0255459 C32.3863881,28.8696507 32.4367261,28.7664847 32.4893522,28.6633188 C32.5923162,28.5601528 32.6952803,28.5097162 32.8989203,28.4065502 C33.1574744,28.3561135 33.2581504,28.3033843 33.3107765,28.2529476 L33.7729706,27.9434498 C33.8233086,27.8930131 33.8233086,27.8402838 33.7729706,27.8402838 C34.1322008,27.8930131 34.4410929,27.7898472 34.647021,27.5330786 C34.850661,27.3267467 34.800323,27.1204148 34.4914309,26.9668122 C34.5440569,26.8636463 34.5440569,26.7604803 34.3884668,26.6573144 C34.2855028,26.6068777 34.1322008,26.5541485 33.9788987,26.5037118 L34.3381289,26.5037118 C34.4914309,26.5037118 34.5943949,26.5037118 34.5943949,26.4509825 C34.9032871,26.2973799 34.850661,26.1437773 34.3884668,25.9878821 C34.0818628,25.8847162 33.6700066,26.0406114 33.1574744,26.3478166 C33.1574744,26.3478166 33.0545104,26.4509825 32.8989203,26.6068777 C32.7456182,26.7604803 32.6426542,26.8636463 32.5396901,26.914083 C32.5396901,26.914083 32.5923162,26.8636463 32.6426542,26.7604803 C32.6952803,26.6573144 32.7456182,26.5541485 32.7982443,26.4509825 C32.8485823,26.2973799 32.8989203,26.2446507 32.8989203,26.2446507 C33.0018843,26.091048 33.2078124,25.9374454 33.5167046,25.7815502 C33.7729706,25.6806769 34.2855028,25.5775109 35.0062511,25.474345 C35.6720853,25.3184498 36.1365676,25.4216157 36.4957977,25.7815502 C36.4431716,25.7311135 36.5461357,25.6279476 36.7520638,25.4216157 C36.8160829,25.3581837 36.875016,25.2994047 36.9273504,25.2485162 L36.9273504,25.2485162 Z M34.2301149,21.6111926 C33.8284374,20.4659116 33.6502449,19.1353216 33.6502449,17.53342 L33.6502449,12.9857168 C31.0361173,11.9048814 28.2628338,11.375 25.3505115,11.375 C24.359585,11.375 23.3875545,11.4347445 22.4344202,11.5550313 L22.4344202,14.450646 L22.4344202,15.9170555 C22.4648412,15.8613813 22.4947808,15.787865 22.5247203,15.6965066 C22.6803105,15.5933406 22.8336125,15.5429039 23.0898786,15.5933406 C23.3461446,15.5933406 23.5520727,15.6460699 23.7076629,15.7492358 C24.220195,16.0060044 24.270533,16.2627729 23.9113029,16.5195415 C24.117231,16.5195415 24.3231591,16.5722707 24.6320512,16.7258734 C24.8883173,16.879476 24.9912813,16.9826419 24.9386553,17.1385371 C25.0942454,16.879476 25.2475474,16.7258734 25.4008494,16.7258734 C25.5038135,16.7258734 25.5564396,16.879476 25.6594036,17.1385371 C25.7600796,17.3425764 25.8127056,17.4984716 25.8127056,17.4984716 C25.9660077,17.7025109 26.1215978,17.7552402 26.2748998,17.6520742 C26.4282018,17.5489083 26.5837919,17.3425764 26.737094,17.1385371 C26.890396,16.9322052 26.9933601,16.8290393 27.0459861,16.8290393 C26.840058,16.77631 26.787432,16.6754367 26.9430221,16.6227074 C27.2496261,16.4163755 27.5081803,16.4163755 27.7118203,16.4691048 C27.8147844,16.5195415 27.8674104,16.5722707 27.9703745,16.7258734 C28.1236765,17.0858079 28.1236765,17.2394105 27.8674104,17.2394105 C28.0733385,17.3953057 28.1236765,17.5489083 28.0733385,17.8056769 C28.0733385,18.0120087 27.9177484,18.1151747 27.6614823,18.1151747 C27.5585183,18.1151747 27.4052162,18.064738 27.2496261,17.9615721 C27.0459861,17.8584061 26.890396,17.8056769 26.840058,17.8056769 C26.737094,17.8056769 26.5837919,17.8584061 26.4282018,17.9615721 C26.3252378,18.064738 26.2222737,18.2183406 26.1215978,18.4751092 C26.0186337,18.681441 25.8630436,18.8350437 25.8127056,18.9382096 C25.5038135,19.2477074 25.0416193,19.3508734 24.373497,19.2477074 C24.4261231,19.2477074 24.4261231,19.2981441 24.3231591,19.4540393 C24.270533,19.5572052 24.169857,19.6580786 24.066893,19.8139738 C23.9639289,19.9675764 23.8609649,20.0203057 23.8609649,20.0707424 C23.7076629,20.2770742 23.6046988,20.4834061 23.5017348,20.7401747 L23.5017348,21.1001092 C23.4491087,21.306441 23.4491087,21.5104803 23.3987707,21.6136463 C23.6046988,21.5632096 23.8106269,21.6663755 23.9113029,21.9735808 C24.0142669,22.2326419 24.0142669,22.3862445 23.9113029,22.3862445 C24.5794251,22.2830786 25.0942454,22.3358079 25.6067775,22.4894105 C26.2748998,22.746179 26.6844679,23.0029476 26.737094,23.2620087 C26.890396,23.0556769 27.1489502,23.0556769 27.6088563,23.2092795 C27.7644464,23.3124454 27.9177484,23.6219432 28.0733385,24.0850437 C28.1236765,24.3922489 28.2769785,24.5985808 28.4325686,24.8049127 C28.6362086,25.0616812 28.7917988,25.1144105 29.0480648,25.0112445 L29.0984028,24.9585153 C29.2013669,24.9080786 29.2539929,24.8553493 29.3043309,24.8553493 C29.356957,24.8049127 29.407295,24.754476 29.459921,24.7017467 C29.510259,24.7017467 29.560597,24.65131 29.560597,24.5985808 C29.560597,24.5481441 29.560597,24.4954148 29.510259,24.4954148 C29.356957,24.3922489 29.2539929,24.1882096 29.2013669,24.0323144 C29.1510289,23.8259825 29.1510289,23.6219432 29.2539929,23.466048 C29.3043309,23.4156114 29.459921,23.2620087 29.7161871,23.1588428 C29.9724532,23.0029476 30.1257552,22.849345 30.1783813,22.6957424 C30.2287193,22.4366812 30.1783813,22.2326419 29.8694891,22.0767467 C29.6132231,21.8727074 29.459921,21.7695415 29.459921,21.6136463 C29.459921,21.5104803 29.560597,21.409607 29.663561,21.2537118 C29.8191512,21.1505459 29.8694891,20.9969432 29.8191512,20.8937773 C29.8191512,20.8433406 29.8191512,20.7401747 29.7161871,20.5338428 C29.663561,20.3275109 29.6132231,20.224345 29.6132231,20.121179 C29.6132231,20.0707424 29.663561,19.9675764 29.7665251,19.8139738 C29.8694891,19.7612445 30.1783813,19.7612445 30.6909134,19.8644105 C31.2057337,19.9171397 31.5123377,20.0203057 31.6679279,20.121179 C31.7182658,20.1739083 31.8212299,20.224345 32.027158,20.2770742 C32.2330861,20.3802402 32.3863881,20.4306769 32.5396901,20.5338428 C32.6952803,20.6370087 32.7456182,20.6874454 32.7982443,20.7906114 L32.6426542,20.7906114 C32.7456182,20.8937773 32.8485823,21.0496725 32.8989203,21.2032751 C32.8989203,21.3568777 32.8485823,21.4600437 32.6426542,21.5104803 C32.7982443,21.5104803 32.9515463,21.5104803 33.1048484,21.6136463 C33.4137405,21.7168122 33.4137405,21.8199782 33.1574744,21.9231441 C33.2078124,21.9231441 33.3107765,21.8727074 33.4137405,21.8727074 C33.5167046,21.8727074 33.5670425,21.8199782 33.6196686,21.7695415 C33.6700066,21.7695415 33.7226326,21.7168122 33.7729706,21.6663755 C33.8233086,21.6136463 33.8759347,21.6136463 33.9262727,21.6136463 C33.9262727,21.5632096 33.9788987,21.5632096 34.0292367,21.5632096 C34.0809952,21.5632096 34.1305403,21.5632096 34.2301149,21.6111926 L34.2301149,21.6111926 Z M22.4344202,16.1896789 L22.4344202,17.2817653 C22.4842272,17.3730867 22.5417678,17.5125805 22.5773464,17.6520742 C22.6276844,17.9088428 22.7306484,18.064738 22.8336125,18.1656114 C22.9365765,18.064738 22.9365765,17.9615721 22.8862386,17.7552402 C22.8336125,17.5489083 22.8336125,17.4457424 22.8862386,17.3425764 C22.9365765,17.3425764 22.9869145,17.2921397 23.0395406,17.2394105 C23.1425046,17.1889738 23.2454687,17.1889738 23.3987707,17.1385371 C23.5017348,17.0858079 23.6046988,17.0353712 23.6550368,17.0353712 C23.7580008,16.9322052 23.6550368,16.8290393 23.3987707,16.6227074 C23.3461446,16.5722707 23.2958067,16.5722707 23.1425046,16.5195415 C23.0395406,16.4691048 22.9365765,16.4691048 22.8336125,16.4163755 C22.7306484,16.3659389 22.6276844,16.3132096 22.5247203,16.2627729 C22.4882381,16.244496 22.4580654,16.219295 22.4344202,16.1896789 L22.4344202,16.1896789 Z M28.6362086,50.4313319 C28.7917988,50.1745633 28.8947628,50.0186681 28.8947628,49.8650655 C28.5858707,49.8146288 28.4829066,49.5555677 28.5355327,49.1451965 C28.5858707,48.8356987 28.8421367,48.4757642 29.356957,47.9622271 C29.7161871,47.6527293 29.8694891,47.1896288 29.7161871,46.5706332 C29.663561,46.3665939 29.6132231,46.0066594 29.560597,45.4908297 C29.510259,45.0277293 29.510259,44.6677948 29.459921,44.5141921 C29.459921,44.5646288 29.560597,44.6173581 29.7161871,44.6677948 C29.9221152,44.7182314 30.0227912,44.7709607 30.0754172,44.8213974 C30.0754172,44.7709607 30.1257552,44.6677948 30.1783813,44.5141921 C30.2813453,44.3582969 30.3316833,44.255131 30.3843094,44.2046943 C30.4346474,44.1015284 30.4872734,44.0510917 30.6405755,43.9479258 C30.7435395,43.8951965 30.8465036,43.8447598 30.8465036,43.7920306 C30.8968415,43.7920306 30.9998056,43.7415939 31.1027696,43.6384279 C31.2560717,43.535262 31.3590357,43.4320961 31.4619998,43.3816594 C31.5123377,43.3289301 31.6679279,43.2784934 31.7708919,43.2280568 C31.9241939,43.2280568 32.027158,43.2784934 32.077496,43.3816594 C32.18046,43.4848253 32.18046,43.6911572 32.027158,43.8951965 C31.9241939,44.1542576 31.9241939,44.3078603 32.027158,44.4110262 C32.077496,44.3582969 32.077496,44.2046943 32.077496,44.0510917 C32.130122,43.8447598 32.18046,43.6911572 32.2834241,43.5879913 C32.3863881,43.4848253 32.4893522,43.4320961 32.5923162,43.3816594 C32.6952803,43.3816594 32.7982443,43.3816594 32.8989203,43.4320961 C32.9515463,43.4848253 33.0545104,43.5879913 33.1574744,43.6384279 C33.3107765,43.7415939 33.4137405,43.7920306 33.5167046,43.7920306 C33.7729706,43.8951965 34.1322008,44.1015284 34.5440569,44.4614629 C34.4914309,44.4110262 34.4914309,44.4110262 34.5440569,44.3582969 C34.5440569,44.3582969 34.5943949,44.3078603 34.647021,44.3078603 C34.697359,44.255131 34.747697,44.2046943 34.800323,44.2046943 C34.850661,44.1542576 34.9032871,44.1542576 34.9536251,44.1015284 L35.0565891,44.1015284 C35.1595531,44.1015284 35.2625172,44.1015284 35.3128552,44.0510917 C35.3654812,44.0510917 35.4684453,44.0510917 35.5714093,44.1015284 C35.6720853,44.2046943 35.7750494,44.2046943 35.7750494,44.255131 C35.8276754,44.3078603 35.8780134,44.3582969 35.9809774,44.4110262 C36.0839415,44.5141921 36.1365676,44.5646288 36.1869055,44.5646288 C36.2372435,44.6173581 36.3402076,44.6677948 36.4957977,44.7709607 C36.6490997,44.8741266 36.8024017,44.9772926 36.8550278,45.0277293 C36.9579919,45.0804585 37.0083298,45.1813319 37.1112939,45.2844978 C37.1616319,45.3876638 37.1616319,45.4908297 37.1616319,45.6444323 C37.2645959,45.6444323 37.520862,45.7475983 37.8297541,45.8507642 C37.9327182,45.9034934 38.0356822,45.9539301 38.1889843,45.9539301 C38.3949124,46.0066594 38.4978764,46.0570961 38.5482144,46.1075328 C35.7750494,49.0420306 32.4367261,50.8417031 28.5355327,51.5111354 C28.4829066,51.3575328 28.4325686,51.2039301 28.4325686,51.0480349 C28.4325686,50.944869 28.4829066,50.7408297 28.6362086,50.4313319 Z" id="Path" fill="#C6C6C2"></path>
                        <path d="M17.5894639,14.6949387 L17.5894639,25.6550418 C17.5894639,29.9577615 16.8732156,31.4186403 12.2414061,33.7102707 C12.0362955,33.8124834 9.67535326,34.9922789 9.42846088,35.1249382 L9.19784712,35.2488983 L8.96126454,35.3734021 L8.72522458,35.2488983 L8.488642,35.1249382 C7.51518063,34.6138744 6.52706851,34.164791 5.75980298,33.7880176 C1.51596832,31.7018999 0.225604581,30.2209032 0.225604581,25.6550418 L0.225604575,14.6949387 C0.225604575,14.6949387 17.4961344,14.6780845 17.5894639,14.6949387 Z M22.0957799,0.641938047 L22.0957799,6.3307295 C22.0957799,8.56403648 21.7240144,9.32229895 19.3198949,10.5117593 C19.2134332,10.5648123 17.9879969,11.1771798 17.8598485,11.246036 L17.7401495,11.3103769 L17.6173524,11.375 L17.4948369,11.3103769 L17.3720398,11.246036 C16.8667691,10.9807707 16.3538941,10.7476759 15.9556484,10.5521134 C13.7529054,9.46932358 13.083148,8.70061898 13.083148,6.3307295 L13.083148,0.641938047 C13.083148,0.641938047 22.0473376,0.633189941 22.0957799,0.641938047 Z M50.7001589,9.04926417 L50.7001589,17.5196794 C50.7001589,20.8449968 50.1466129,21.9740236 46.5669614,23.7450892 C46.4084436,23.8240833 44.583811,24.7358775 44.3930025,24.838402 L44.2147748,24.9342034 L44.0319341,25.030425 L43.8495128,24.9342034 L43.6666721,24.838402 C42.9143414,24.443431 42.150688,24.096361 41.5577139,23.8051751 C38.2779051,22.1929382 37.2806594,21.0483635 37.2806594,17.5196794 L37.2806594,9.04926417 C37.2806594,9.04926417 50.62803,9.03623854 50.7001589,9.04926417 Z" id="iconMapMarker" fill="#333333"></path>
                    </g>
                </g>
                <path d="M162,469.083015 L162,497.916985 C162,497.962833 162.671573,498 163.5,498 C164.328427,498 165,497.962833 165,497.916985 L165,469.083015 C165,469.037167 164.328427,469 163.5,469 C162.671573,469 162,469.037167 162,469.083015 L162,469.083015 Z" id="lineCenter" fill="#C6C6C2" sketch:type="MSShapeGroup"></path>
            </g>
        </g>
    </g>
</svg>