<?xml version="1.0" encoding="UTF-8" standalone="no"?>
<svg width="550px" height="540px" viewBox="0 0 550 540" version="1.1" xmlns="http://www.w3.org/2000/svg" xmlns:xlink="http://www.w3.org/1999/xlink" xmlns:sketch="http://www.bohemiancoding.com/sketch/ns">
    <!-- Generator: Sketch 3.4 (15588) - http://www.bohemiancoding.com/sketch -->
    <title>Group</title>
    <desc>Created with Sketch.</desc>
    <defs>
        <filter x="-50%" y="-50%" width="200%" height="200%" filterUnits="objectBoundingBox" id="filter-1">
            <feGaussianBlur stdDeviation="0" in="SourceGraphic" result="blur"></feGaussianBlur>
        </filter>
        <filter x="-50%" y="-50%" width="200%" height="200%" filterUnits="objectBoundingBox" id="filter-2">
            <feGaussianBlur stdDeviation="0" in="SourceGraphic" result="blur"></feGaussianBlur>
        </filter>
        <filter x="-50%" y="-50%" width="200%" height="200%" filterUnits="objectBoundingBox" id="filter-3">
            <feGaussianBlur stdDeviation="0" in="SourceGraphic" result="blur"></feGaussianBlur>
        </filter>
        <filter x="-50%" y="-50%" width="200%" height="200%" filterUnits="objectBoundingBox" id="filter-4">
            <feGaussianBlur stdDeviation="0" in="SourceGraphic" result="blur"></feGaussianBlur>
        </filter>
        <circle id="path-5" cx="27" cy="27" r="27"></circle>
        <circle id="path-7" cx="27" cy="27" r="27"></circle>
        <circle id="path-9" cx="27" cy="27" r="27"></circle>
    </defs>
    <g id="Page-1" stroke="none" stroke-width="1" fill="none" fill-rule="evenodd" sketch:type="MSPage">
        <g id="large" sketch:type="MSArtboardGroup" transform="translate(-227.000000, -133.000000)">
            <g id="Group" sketch:type="MSLayerGroup" transform="translate(227.000000, 133.000000)">
                <g id="bgLines" transform="translate(28.312500, 60.961538)" sketch:type="MSShapeGroup">
                    <path d="M244.6875,412.228316 C244.6875,263.814077 331.64551,11.2952124 480.986747,11.2951967" id="Path-242" stroke="#C7C7C2" stroke-width="3" stroke-linecap="round" stroke-linejoin="round" opacity="0.180235541" filter="url(#filter-1)"></path>
                    <path d="M244.6875,413.416039 C244.6875,265.087249 152.159936,10.8911132 7.63797333,10.8910975" id="Path-242" stroke="#C7C7C2" stroke-width="3" stroke-linecap="round" stroke-linejoin="round" opacity="0.180235541" filter="url(#filter-2)"></path>
                    <path d="M244.6875,10.6753445 C244.6875,164.011596 333.459687,409.151691 478.895235,409.151707" id="Path-242" stroke="#C7C7C2" stroke-width="3" stroke-linecap="round" stroke-linejoin="round" opacity="0.180235541" filter="url(#filter-3)"></path>
                    <path d="M244.6875,10.4498202 C244.6875,162.052619 155.241331,408.900599 6.19254662,408.900615" id="Path-242" stroke="#C7C7C2" stroke-width="3" stroke-linecap="round" stroke-linejoin="round" opacity="0.180235541" filter="url(#filter-4)"></path>
                    <path d="M7.63797333,10.8910975 C7.63797333,90.7679321 77.6093182,208.873242 243.725706,208.873251" id="Path-242" stroke="#C7C7C2" stroke-width="3" stroke-linecap="round" stroke-linejoin="round"></path>
                    <path d="M7.63797333,407.962528 C7.63797333,328.085693 77.6093182,209.980383 243.725706,209.980375" id="Path-242" stroke="#C7C7C2" stroke-width="3" stroke-linecap="round" stroke-linejoin="round"></path>
                    <circle id="Oval-21" fill="#C7C7C2" cx="244.5" cy="409.5" r="6.5"></circle>
                    <circle id="Oval-21" fill="#C7C7C2" cx="480.986747" cy="409.5" r="6.5"></circle>
                    <circle id="Oval-21" fill="#C7C7C2" cx="7.5" cy="409.5" r="6.5"></circle>
                    <path d="M480.986747,10.8910975 C480.986747,90.7679321 411.015402,208.873242 244.899014,208.873251" id="Path-242" stroke="#C7C7C2" stroke-width="3" stroke-linecap="round" stroke-linejoin="round"></path>
                    <path d="M480.986747,407.962528 C480.986747,328.085693 411.015402,209.980383 244.899014,209.980375" id="Path-242" stroke="#C7C7C2" stroke-width="3" stroke-linecap="round" stroke-linejoin="round"></path>
                    <path d="M244.5,346.534908 L244.5,413.047111" id="Line" stroke="#C7C7C2" stroke-width="3" stroke-linecap="round" stroke-linejoin="round"></path>
                    <path d="M244.5,15.5384615 L244.5,305.574844" id="Line" stroke="#C7C7C2" stroke-width="3" stroke-linecap="round" stroke-linejoin="round"></path>
                    <circle id="Oval-21" fill="#C7C7C2" cx="7.1875" cy="10.5384615" r="6.5"></circle>
                    <circle id="Oval-21" fill="#C7C7C2" cx="244.1875" cy="10.5384615" r="6.5"></circle>
                    <circle id="Oval-21" fill="#C7C7C2" cx="481.1875" cy="10.5384615" r="6.5"></circle>
                </g>
                <g id="iconCreateGroups" transform="translate(0.950473, 0.000000)">
                    <g id="group" transform="translate(7.000000, 0.000000)">
                        <mask id="mask-6" sketch:name="Mask" fill="white">
                            <use xlink:href="#path-5"></use>
                        </mask>
                        <use id="Mask" fill="#FFFFFF" sketch:type="MSShapeGroup" xlink:href="#path-5"></use>
                        <g id="Imported-Layers" mask="url(#mask-6)" fill="#C6C6C2" sketch:type="MSShapeGroup">
                            <g transform="translate(-6.373626, 11.868132)" id="male">
                                <path d="M29.645656,53.0438541 C30.1928146,47.7305484 29.9881418,40.9545143 29.2342637,36.8412734 C28.9797872,34.0829663 28.2982268,29.9390245 26.4732277,27.5129696 C25.1571816,25.4723818 21.6347628,24.3241675 15.0572614,24.3241675 L14.9139904,24.3241675 C7.92168547,24.3241675 4.38221059,25.6204285 3.27288404,27.9073059 C1.6566512,30.3695196 1.03239917,34.2269195 0.791567515,36.8405911 C0.0376893851,40.9545143 -0.166301168,47.7305484 0.380175196,53.0438541 C0.228717328,53.5391623 0.127745415,54.0842742 0.0915865546,54.660087 C-0.0557778582,57.0506652 0.962810421,59.0571409 2.36481907,59.1410567 C3.22512705,59.1942716 4.03017338,58.5127112 4.55959368,57.4286277 C4.83453747,57.0158708 4.90617295,56.6228991 4.90617295,56.6228991 C4.90617295,56.6228991 4.90685519,56.5874225 4.90685519,56.5239739 C5.04807942,56.0457218 5.14222891,55.5210772 5.17702328,54.9684606 C5.23023821,54.1156573 5.13267751,53.3126577 4.92391126,52.6270039 C4.92118229,49.5432671 4.88434118,45.2069328 4.72060295,41.586271 C5.18793916,40.7907761 5.62866792,39.8847579 6.03733127,38.9248424 C6.72776083,43.4358309 6.51421888,48.5014826 6.38936847,50.4827152 C6.37640586,50.5475283 6.36548998,50.6137058 6.35593858,50.6805656 C6.20993866,51.7284903 6.32660215,55.6800397 6.72230289,64.2687925 C6.86420936,67.3504825 8.37060113,87.176454 8.64759165,90.8100784 C8.15842367,91.2480781 7.86233036,91.8136573 7.86233036,92.4324514 C7.86233036,93.8208152 9.34757261,94.0084319 11.1780296,94.0084319 C13.0105334,94.0084319 14.4957757,93.8208152 14.4957757,92.4324514 C14.4957757,92.0865544 14.4029907,91.7570312 14.2358412,91.4561622 L14.2720001,91.3824799 L14.3177103,57.0267867 C14.3177103,57.0267867 14.2856449,55.3109465 14.9863081,54.7283112 C15.6883358,55.3109465 15.6569527,57.0267867 15.6569527,57.0267867 L15.7026629,91.3824799 L15.7381395,91.4561622 C15.5709901,91.7570312 15.4782051,92.0865544 15.4782051,92.4324514 C15.4782051,93.8208152 16.9641296,94.0084319 18.7945866,94.0084319 C20.6270904,94.0084319 22.1123326,93.8208152 22.1123326,92.4324514 C22.1123326,91.8136573 21.8155571,91.2480781 21.3263891,90.8100784 C21.6033796,87.176454 23.1097714,67.3504825 23.2516779,64.2687925 C23.6473786,55.6800397 23.7640421,51.7284903 23.6187244,50.6805656 C23.6078085,50.6068834 23.5948459,50.5338834 23.5798366,50.4622479 C23.4549862,48.457819 23.2421265,43.351915 23.9482476,38.830693 C24.3671446,39.8254027 24.8215182,40.7641686 25.3052282,41.5855888 C25.14149,45.2062505 25.1039667,49.5432671 25.1019199,52.6276861 C24.8924714,53.3126577 24.795593,54.1156573 24.8481257,54.9684606 C24.88292,55.5210772 24.9777518,56.0457218 25.1176115,56.5232917 C25.118976,56.5874225 25.118976,56.6228991 25.118976,56.6228991 C25.118976,56.6228991 25.191976,57.0158708 25.4662375,57.4286277 C25.9942933,58.5127112 26.7993396,59.1942716 27.6603299,59.1410567 C29.063703,59.0571409 30.0802446,57.0506652 29.9342446,54.660087 C29.8980858,54.0842742 29.7964316,53.5391623 29.645656,53.0438541 Z M15.0402053,23.0783924 C18.0004562,23.0783924 20.3992213,20.1665807 20.3992213,16.5745732 C20.3992213,12.9832479 18.0004562,10.0714362 15.0402053,10.0714362 C12.0826834,10.0714362 9.683236,12.9832479 9.683236,16.5745732 C9.683236,20.1665807 12.0826834,23.0783924 15.0402053,23.0783924 Z"></path>
                                <path d="M66.645656,53.0438541 C67.1928146,47.7305484 66.9881418,40.9545143 66.2342637,36.8412734 C65.9797872,34.0829663 65.2982268,29.9390245 63.4732277,27.5129696 C62.1571816,25.4723818 58.6347628,24.3241675 52.0572614,24.3241675 L51.9139904,24.3241675 C44.9216855,24.3241675 41.3822106,25.6204285 40.272884,27.9073059 C38.6566512,30.3695196 38.0323992,34.2269195 37.7915675,36.8405911 C37.0376894,40.9545143 36.8336988,47.7305484 37.3801752,53.0438541 C37.2287173,53.5391623 37.1277454,54.0842742 37.0915866,54.660087 C36.9442221,57.0506652 37.9628104,59.0571409 39.3648191,59.1410567 C40.2251271,59.1942716 41.0301734,58.5127112 41.5595937,57.4286277 C41.8345375,57.0158708 41.9061729,56.6228991 41.9061729,56.6228991 C41.9061729,56.6228991 41.9068552,56.5874225 41.9068552,56.5239739 C42.0480794,56.0457218 42.1422289,55.5210772 42.1770233,54.9684606 C42.2302382,54.1156573 42.1326775,53.3126577 41.9239113,52.6270039 C41.9211823,49.5432671 41.8843412,45.2069328 41.7206029,41.586271 C42.1879392,40.7907761 42.6286679,39.8847579 43.0373313,38.9248424 C43.7277608,43.4358309 43.5142189,48.5014826 43.3893685,50.4827152 C43.3764059,50.5475283 43.36549,50.6137058 43.3559386,50.6805656 C43.2099387,51.7284903 43.3266021,55.6800397 43.7223029,64.2687925 C43.8642094,67.3504825 45.3706011,87.176454 45.6475917,90.8100784 C45.1584237,91.2480781 44.8623304,91.8136573 44.8623304,92.4324514 C44.8623304,93.8208152 46.3475726,94.0084319 48.1780296,94.0084319 C50.0105334,94.0084319 51.4957757,93.8208152 51.4957757,92.4324514 C51.4957757,92.0865544 51.4029907,91.7570312 51.2358412,91.4561622 L51.2720001,91.3824799 L51.3177103,57.0267867 C51.3177103,57.0267867 51.2856449,55.3109465 51.9863081,54.7283112 C52.6883358,55.3109465 52.6569527,57.0267867 52.6569527,57.0267867 L52.7026629,91.3824799 L52.7381395,91.4561622 C52.5709901,91.7570312 52.4782051,92.0865544 52.4782051,92.4324514 C52.4782051,93.8208152 53.9641296,94.0084319 55.7945866,94.0084319 C57.6270904,94.0084319 59.1123326,93.8208152 59.1123326,92.4324514 C59.1123326,91.8136573 58.8155571,91.2480781 58.3263891,90.8100784 C58.6033796,87.176454 60.1097714,67.3504825 60.2516779,64.2687925 C60.6473786,55.6800397 60.7640421,51.7284903 60.6187244,50.6805656 C60.6078085,50.6068834 60.5948459,50.5338834 60.5798366,50.4622479 C60.4549862,48.457819 60.2421265,43.351915 60.9482476,38.830693 C61.3671446,39.8254027 61.8215182,40.7641686 62.3052282,41.5855888 C62.14149,45.2062505 62.1039667,49.5432671 62.1019199,52.6276861 C61.8924714,53.3126577 61.795593,54.1156573 61.8481257,54.9684606 C61.88292,55.5210772 61.9777518,56.0457218 62.1176115,56.5232917 C62.118976,56.5874225 62.118976,56.6228991 62.118976,56.6228991 C62.118976,56.6228991 62.191976,57.0158708 62.4662375,57.4286277 C62.9942933,58.5127112 63.7993396,59.1942716 64.6603299,59.1410567 C66.063703,59.0571409 67.0802446,57.0506652 66.9342446,54.660087 C66.8980858,54.0842742 66.7964316,53.5391623 66.645656,53.0438541 Z M52.0402053,23.0783924 C55.0004562,23.0783924 57.3992213,20.1665807 57.3992213,16.5745732 C57.3992213,12.9832479 55.0004562,10.0714362 52.0402053,10.0714362 C49.0826834,10.0714362 46.683236,12.9832479 46.683236,16.5745732 C46.683236,20.1665807 49.0826834,23.0783924 52.0402053,23.0783924 Z"></path>
                                <path d="M55.3532734,64.5111426 C56.1551145,56.7246851 55.8551739,46.7946523 54.7503928,40.7668465 C54.3774667,36.7246473 53.3786646,30.6518503 50.7041944,27.0965546 C48.7755764,24.106147 43.6135991,22.4234804 33.9745086,22.4234804 L33.7645502,22.4234804 C23.5175802,22.4234804 18.3306077,24.3231041 16.7049298,27.6744401 C14.336399,31.2827253 13.4215802,36.9356055 13.0686502,40.7658467 C11.963869,46.7946523 11.6649282,56.7246851 12.4657696,64.5111426 C12.2438136,65.2369988 12.0958429,66.0358406 12.0428534,66.8796734 C11.8268962,70.3829794 13.3196004,73.3233969 15.3741934,73.4463725 C16.6349437,73.5243571 17.8147099,72.5255549 18.5905562,70.9368696 C18.9934764,70.3319895 19.0984556,69.7561036 19.0984556,69.7561036 C19.0984556,69.7561036 19.0994554,69.7041139 19.0994554,69.6111323 C19.3064144,68.9102711 19.4443871,68.1414234 19.495377,67.3315839 C19.5733615,66.0818315 19.4303899,64.9050646 19.1244505,63.9002636 C19.1204513,59.3811589 19.066462,53.0264178 18.8265095,47.7204689 C19.5113738,46.5546999 20.1572459,45.2269629 20.7561272,43.8202416 C21.7679268,50.430932 21.4549888,57.8544613 21.272025,60.7578862 C21.2530288,60.8528673 21.237032,60.9498481 21.2230347,61.0478287 C21.0090771,62.5835245 21.1800433,68.3743773 21.7599284,80.9608838 C21.9678872,85.4769892 24.1754499,114.531233 24.5813694,119.856178 C23.8645114,120.498051 23.4305974,121.326887 23.4305974,122.233707 C23.4305974,124.268304 25.6071662,124.54325 28.2896348,124.54325 C30.9751028,124.54325 33.1516716,124.268304 33.1516716,122.233707 C33.1516716,121.726808 33.0156986,121.243904 32.7707471,120.802991 L32.8237366,120.695012 L32.8907233,70.3479863 C32.8907233,70.3479863 32.8437326,67.8334844 33.8705292,66.9796536 C34.8993254,67.8334844 34.8533345,70.3479863 34.8533345,70.3479863 L34.9203212,120.695012 L34.9723109,120.802991 C34.7273595,121.243904 34.5913864,121.726808 34.5913864,122.233707 C34.5913864,124.268304 36.768955,124.54325 39.4514236,124.54325 C42.1368916,124.54325 44.3134604,124.268304 44.3134604,122.233707 C44.3134604,121.326887 43.8785466,120.498051 43.1616886,119.856178 C43.5676082,114.531233 45.7751708,85.4769892 45.9831296,80.9608838 C46.5630148,68.3743773 46.7339809,62.5835245 46.5210231,61.0478287 C46.5050263,60.9398501 46.48603,60.8328713 46.4640344,60.7278921 C46.2810706,57.790474 45.9691324,50.3079563 47.0039274,43.6822689 C47.6178058,45.1399801 48.2836739,46.5157076 48.9925335,47.7194691 C48.752581,53.025418 48.6975919,59.3811589 48.6945925,63.9012634 C48.3876533,64.9050646 48.2456814,66.0818315 48.3226662,67.3315839 C48.3736561,68.1414234 48.5126285,68.9102711 48.7175879,69.6101325 C48.7195875,69.7041139 48.7195875,69.7561036 48.7195875,69.7561036 C48.7195875,69.7561036 48.8265663,70.3319895 49.2284867,70.9368696 C50.0023334,72.5255549 51.1820997,73.5243571 52.4438497,73.4463725 C54.5004423,73.3233969 55.9901472,70.3829794 55.7761896,66.8796734 C55.7232001,66.0358406 55.5742296,65.2369988 55.3532734,64.5111426 Z M33.9495136,20.5978421 C38.2876542,20.5978421 41.8029578,16.3306874 41.8029578,11.0667302 C41.8029578,5.80377283 38.2876542,1.53661817 33.9495136,1.53661817 C29.6153722,1.53661817 26.0990688,5.80377283 26.0990688,11.0667302 C26.0990688,16.3306874 29.6153722,20.5978421 33.9495136,20.5978421 Z"></path>
                            </g>
                        </g>
                    </g>
                    <g id="ic_add_circle-+-ic_add_circle" transform="translate(0.000000, 40.000000)" sketch:type="MSShapeGroup">
                        <path d="M16,0 C7.168,0 0,7.168 0,16 C0,24.832 7.168,32 16,32 C24.832,32 32,24.832 32,16 C32,7.168 24.832,0 16,0 L16,0 Z" id="ic_add_circle" fill="#FFFFFF"></path>
                        <path d="M16.5,4 C9.6,4 4,9.6 4,16.5 C4,23.4 9.6,29 16.5,29 C23.4,29 29,23.4 29,16.5 C29,9.6 23.4,4 16.5,4 L16.5,4 Z M22.75,17.75 L17.75,17.75 L17.75,22.75 L15.25,22.75 L15.25,17.75 L10.25,17.75 L10.25,15.25 L15.25,15.25 L15.25,10.25 L17.75,10.25 L17.75,15.25 L22.75,15.25 L22.75,17.75 L22.75,17.75 Z" id="ic_add_circle" fill="#444444"></path>
                    </g>
                </g>
                <g id="iconShareContent" transform="translate(236.950473, 14.000000)" sketch:type="MSShapeGroup">
                    <path d="M69.6,3 L34.4,3 C31.98,3 30.022,4.98 30.022,7.4 L30,47 L38.8,38.2 L69.6,38.2 C72.02,38.2 74,36.22 74,33.8 L74,7.4 C74,4.98 72.02,3 69.6,3 L69.6,3 Z M38.8,18.4 L65.2,18.4 L65.2,22.8 L38.8,22.8 L38.8,18.4 L38.8,18.4 Z M56.4,29.4 L38.8,29.4 L38.8,25 L56.4,25 L56.4,29.4 L56.4,29.4 Z M65.2,16.2 L38.8,16.2 L38.8,11.8 L65.2,11.8 L65.2,16.2 L65.2,16.2 Z" id="Shape" fill="#C6C6C2"></path>
                    <path d="M2.7,0 L24.3,0 C25.785,0 26.9865,1.215 26.9865,2.7 L27,27 L21.6,21.6 L2.7,21.6 C1.215,21.6 0,20.385 0,18.9 L0,2.7 C0,1.215 1.215,0 2.7,0 L2.7,0 Z M21.6,16.2 L16.2,11.88 L16.2,16.2 L5.4,16.2 L5.4,5.4 L16.2,5.4 L16.2,9.72 L21.6,5.4 L21.6,16.2 L21.6,16.2 Z" id="Shape" fill-opacity="0.7" fill="#000000"></path>
                </g>
                <g id="iconDiscoverPeople" transform="translate(484.950473, 5.000000)">
                    <g id="person">
                        <mask id="mask-8" sketch:name="Mask" fill="white">
                            <use xlink:href="#path-7"></use>
                        </mask>
                        <use id="Mask" fill="#FFFFFF" sketch:type="MSShapeGroup" xlink:href="#path-7"></use>
                        <g id="Imported-Layers" mask="url(#mask-8)" fill="#C6C6C2" sketch:type="MSShapeGroup">
                            <g transform="translate(2.626374, 11.868132)" id="male">
                                <path d="M46.3532734,64.5111426 C47.1551145,56.7246851 46.8551739,46.7946523 45.7503928,40.7668465 C45.3774667,36.7246473 44.3786646,30.6518503 41.7041944,27.0965546 C39.7755764,24.106147 34.6135991,22.4234804 24.9745086,22.4234804 L24.7645502,22.4234804 C14.5175802,22.4234804 9.33060774,24.3231041 7.7049298,27.6744401 C5.33639901,31.2827253 4.42158024,36.9356055 4.06865016,40.7658467 C2.96386902,46.7946523 2.66492825,56.7246851 3.46576959,64.5111426 C3.24381357,65.2369988 3.09584288,66.0358406 3.04285338,66.8796734 C2.82689616,70.3829794 4.31960045,73.3233969 6.37419342,73.4463725 C7.63494366,73.5243571 8.81470994,72.5255549 9.59055624,70.9368696 C9.99347642,70.3319895 10.0984556,69.7561036 10.0984556,69.7561036 C10.0984556,69.7561036 10.0994554,69.7041139 10.0994554,69.6111323 C10.3064144,68.9102711 10.4443871,68.1414234 10.495377,67.3315839 C10.5733615,66.0818315 10.4303899,64.9050646 10.1244505,63.9002636 C10.1204513,59.3811589 10.066462,53.0264178 9.8265095,47.7204689 C10.5113738,46.5546999 11.1572459,45.2269629 11.7561272,43.8202416 C12.7679268,50.430932 12.4549888,57.8544613 12.272025,60.7578862 C12.2530288,60.8528673 12.237032,60.9498481 12.2230347,61.0478287 C12.0090771,62.5835245 12.1800433,68.3743773 12.7599284,80.9608838 C12.9678872,85.4769892 15.1754499,114.531233 15.5813694,119.856178 C14.8645114,120.498051 14.4305974,121.326887 14.4305974,122.233707 C14.4305974,124.268304 16.6071662,124.54325 19.2896348,124.54325 C21.9751028,124.54325 24.1516716,124.268304 24.1516716,122.233707 C24.1516716,121.726808 24.0156986,121.243904 23.7707471,120.802991 L23.8237366,120.695012 L23.8907233,70.3479863 C23.8907233,70.3479863 23.8437326,67.8334844 24.8705292,66.9796536 C25.8993254,67.8334844 25.8533345,70.3479863 25.8533345,70.3479863 L25.9203212,120.695012 L25.9723109,120.802991 C25.7273595,121.243904 25.5913864,121.726808 25.5913864,122.233707 C25.5913864,124.268304 27.768955,124.54325 30.4514236,124.54325 C33.1368916,124.54325 35.3134604,124.268304 35.3134604,122.233707 C35.3134604,121.326887 34.8785466,120.498051 34.1616886,119.856178 C34.5676082,114.531233 36.7751708,85.4769892 36.9831296,80.9608838 C37.5630148,68.3743773 37.7339809,62.5835245 37.5210231,61.0478287 C37.5050263,60.9398501 37.48603,60.8328713 37.4640344,60.7278921 C37.2810706,57.790474 36.9691324,50.3079563 38.0039274,43.6822689 C38.6178058,45.1399801 39.2836739,46.5157076 39.9925335,47.7194691 C39.752581,53.025418 39.6975919,59.3811589 39.6945925,63.9012634 C39.3876533,64.9050646 39.2456814,66.0818315 39.3226662,67.3315839 C39.3736561,68.1414234 39.5126285,68.9102711 39.7175879,69.6101325 C39.7195875,69.7041139 39.7195875,69.7561036 39.7195875,69.7561036 C39.7195875,69.7561036 39.8265663,70.3319895 40.2284867,70.9368696 C41.0023334,72.5255549 42.1820997,73.5243571 43.4438497,73.4463725 C45.5004423,73.3233969 46.9901472,70.3829794 46.7761896,66.8796734 C46.7232001,66.0358406 46.5742296,65.2369988 46.3532734,64.5111426 Z M24.9495136,20.5978421 C29.2876542,20.5978421 32.8029578,16.3306874 32.8029578,11.0667302 C32.8029578,5.80377283 29.2876542,1.53661817 24.9495136,1.53661817 C20.6153722,1.53661817 17.0990688,5.80377283 17.0990688,11.0667302 C17.0990688,16.3306874 20.6153722,20.5978421 24.9495136,20.5978421 Z"></path>
                            </g>
                        </g>
                    </g>
                    <path d="M62.4495267,6 L41.6495267,6 C40.2195267,6 39.0625267,7.17 39.0625267,8.6 L39.0495267,32 L44.2495267,26.8 L62.4495267,26.8 C63.8795267,26.8 65.0495267,25.63 65.0495267,24.2 L65.0495267,8.6 C65.0495267,7.17 63.8795267,6 62.4495267,6 L62.4495267,6 Z M46.8495267,21.6 L44.2495267,21.6 L44.2495267,19 L46.8495267,19 L46.8495267,21.6 L46.8495267,21.6 Z M46.8495267,17.7 L44.2495267,17.7 L44.2495267,15.1 L46.8495267,15.1 L46.8495267,17.7 L46.8495267,17.7 Z M46.8495267,13.8 L44.2495267,13.8 L44.2495267,11.2 L46.8495267,11.2 L46.8495267,13.8 L46.8495267,13.8 Z M55.9495267,21.6 L49.4495267,21.6 L49.4495267,19 L55.9495267,19 L55.9495267,21.6 L55.9495267,21.6 Z M59.8495267,17.7 L49.4495267,17.7 L49.4495267,15.1 L59.8495267,15.1 L59.8495267,17.7 L59.8495267,17.7 Z M59.8495267,13.8 L49.4495267,13.8 L49.4495267,11.2 L59.8495267,11.2 L59.8495267,13.8 L59.8495267,13.8 Z" id="ic_speaker_notes" fill="#333333" sketch:type="MSShapeGroup"></path>
                </g>
                <g id="iconGroup" transform="translate(6.000000, 478.000000)">
                    <g id="Imported-Layers"></g>
                    <g id="Imported-Layers" transform="translate(3.000000, 4.000000)">
                        <mask id="mask-10" sketch:name="Mask" fill="white">
                            <use xlink:href="#path-9"></use>
                        </mask>
                        <use id="Mask" fill="#C6C6C2" sketch:type="MSShapeGroup" xlink:href="#path-9"></use>
                        <g mask="url(#mask-10)" id="male" sketch:type="MSShapeGroup">
                            <g transform="translate(-4.373626, 11.868132)">
                                <path d="M29.645656,47.0438541 C30.1928146,41.7305484 29.9881418,34.9545143 29.2342637,30.8412734 C28.9797872,28.0829663 28.2982268,23.9390245 26.4732277,21.5129696 C25.1571816,19.4723818 21.6347628,18.3241675 15.0572614,18.3241675 L14.9139904,18.3241675 C7.92168547,18.3241675 4.38221059,19.6204285 3.27288404,21.9073059 C1.6566512,24.3695196 1.03239917,28.2269195 0.791567515,30.8405911 C0.0376893851,34.9545143 -0.166301168,41.7305484 0.380175196,47.0438541 C0.228717328,47.5391623 0.127745415,48.0842742 0.0915865546,48.660087 C-0.0557778582,51.0506652 0.962810421,53.0571409 2.36481907,53.1410567 C3.22512705,53.1942716 4.03017338,52.5127112 4.55959368,51.4286277 C4.83453747,51.0158708 4.90617295,50.6228991 4.90617295,50.6228991 C4.90617295,50.6228991 4.90685519,50.5874225 4.90685519,50.5239739 C5.04807942,50.0457218 5.14222891,49.5210772 5.17702328,48.9684606 C5.23023821,48.1156573 5.13267751,47.3126577 4.92391126,46.6270039 C4.92118229,43.5432671 4.88434118,39.2069328 4.72060295,35.586271 C5.18793916,34.7907761 5.62866792,33.8847579 6.03733127,32.9248424 C6.72776083,37.4358309 6.51421888,42.5014826 6.38936847,44.4827152 C6.37640586,44.5475283 6.36548998,44.6137058 6.35593858,44.6805656 C6.20993866,45.7284903 6.32660215,49.6800397 6.72230289,58.2687925 C6.86420936,61.3504825 8.37060113,81.176454 8.64759165,84.8100784 C8.15842367,85.2480781 7.86233036,85.8136573 7.86233036,86.4324514 C7.86233036,87.8208152 9.34757261,88.0084319 11.1780296,88.0084319 C13.0105334,88.0084319 14.4957757,87.8208152 14.4957757,86.4324514 C14.4957757,86.0865544 14.4029907,85.7570312 14.2358412,85.4561622 L14.2720001,85.3824799 L14.3177103,51.0267867 C14.3177103,51.0267867 14.2856449,49.3109465 14.9863081,48.7283112 C15.6883358,49.3109465 15.6569527,51.0267867 15.6569527,51.0267867 L15.7026629,85.3824799 L15.7381395,85.4561622 C15.5709901,85.7570312 15.4782051,86.0865544 15.4782051,86.4324514 C15.4782051,87.8208152 16.9641296,88.0084319 18.7945866,88.0084319 C20.6270904,88.0084319 22.1123326,87.8208152 22.1123326,86.4324514 C22.1123326,85.8136573 21.8155571,85.2480781 21.3263891,84.8100784 C21.6033796,81.176454 23.1097714,61.3504825 23.2516779,58.2687925 C23.6473786,49.6800397 23.7640421,45.7284903 23.6187244,44.6805656 C23.6078085,44.6068834 23.5948459,44.5338834 23.5798366,44.4622479 C23.4549862,42.457819 23.2421265,37.351915 23.9482476,32.830693 C24.3671446,33.8254027 24.8215182,34.7641686 25.3052282,35.5855888 C25.14149,39.2062505 25.1039667,43.5432671 25.1019199,46.6276861 C24.8924714,47.3126577 24.795593,48.1156573 24.8481257,48.9684606 C24.88292,49.5210772 24.9777518,50.0457218 25.1176115,50.5232917 C25.118976,50.5874225 25.118976,50.6228991 25.118976,50.6228991 C25.118976,50.6228991 25.191976,51.0158708 25.4662375,51.4286277 C25.9942933,52.5127112 26.7993396,53.1942716 27.6603299,53.1410567 C29.063703,53.0571409 30.0802446,51.0506652 29.9342446,48.660087 C29.8980858,48.0842742 29.7964316,47.5391623 29.645656,47.0438541 Z M15.0402053,17.0783924 C18.0004562,17.0783924 20.3992213,14.1665807 20.3992213,10.5745732 C20.3992213,6.98324785 18.0004562,4.07143621 15.0402053,4.07143621 C12.0826834,4.07143621 9.683236,6.98324785 9.683236,10.5745732 C9.683236,14.1665807 12.0826834,17.0783924 15.0402053,17.0783924 Z" fill="#FFFFFF"></path>
                                <path d="M62.645656,47.0438541 C63.1928146,41.7305484 62.9881418,34.9545143 62.2342637,30.8412734 C61.9797872,28.0829663 61.2982268,23.9390245 59.4732277,21.5129696 C58.1571816,19.4723818 54.6347628,18.3241675 48.0572614,18.3241675 L47.9139904,18.3241675 C40.9216855,18.3241675 37.3822106,19.6204285 36.272884,21.9073059 C34.6566512,24.3695196 34.0323992,28.2269195 33.7915675,30.8405911 C33.0376894,34.9545143 32.8336988,41.7305484 33.3801752,47.0438541 C33.2287173,47.5391623 33.1277454,48.0842742 33.0915866,48.660087 C32.9442221,51.0506652 33.9628104,53.0571409 35.3648191,53.1410567 C36.2251271,53.1942716 37.0301734,52.5127112 37.5595937,51.4286277 C37.8345375,51.0158708 37.9061729,50.6228991 37.9061729,50.6228991 C37.9061729,50.6228991 37.9068552,50.5874225 37.9068552,50.5239739 C38.0480794,50.0457218 38.1422289,49.5210772 38.1770233,48.9684606 C38.2302382,48.1156573 38.1326775,47.3126577 37.9239113,46.6270039 C37.9211823,43.5432671 37.8843412,39.2069328 37.7206029,35.586271 C38.1879392,34.7907761 38.6286679,33.8847579 39.0373313,32.9248424 C39.7277608,37.4358309 39.5142189,42.5014826 39.3893685,44.4827152 C39.3764059,44.5475283 39.36549,44.6137058 39.3559386,44.6805656 C39.2099387,45.7284903 39.3266021,49.6800397 39.7223029,58.2687925 C39.8642094,61.3504825 41.3706011,81.176454 41.6475917,84.8100784 C41.1584237,85.2480781 40.8623304,85.8136573 40.8623304,86.4324514 C40.8623304,87.8208152 42.3475726,88.0084319 44.1780296,88.0084319 C46.0105334,88.0084319 47.4957757,87.8208152 47.4957757,86.4324514 C47.4957757,86.0865544 47.4029907,85.7570312 47.2358412,85.4561622 L47.2720001,85.3824799 L47.3177103,51.0267867 C47.3177103,51.0267867 47.2856449,49.3109465 47.9863081,48.7283112 C48.6883358,49.3109465 48.6569527,51.0267867 48.6569527,51.0267867 L48.7026629,85.3824799 L48.7381395,85.4561622 C48.5709901,85.7570312 48.4782051,86.0865544 48.4782051,86.4324514 C48.4782051,87.8208152 49.9641296,88.0084319 51.7945866,88.0084319 C53.6270904,88.0084319 55.1123326,87.8208152 55.1123326,86.4324514 C55.1123326,85.8136573 54.8155571,85.2480781 54.3263891,84.8100784 C54.6033796,81.176454 56.1097714,61.3504825 56.2516779,58.2687925 C56.6473786,49.6800397 56.7640421,45.7284903 56.6187244,44.6805656 C56.6078085,44.6068834 56.5948459,44.5338834 56.5798366,44.4622479 C56.4549862,42.457819 56.2421265,37.351915 56.9482476,32.830693 C57.3671446,33.8254027 57.8215182,34.7641686 58.3052282,35.5855888 C58.14149,39.2062505 58.1039667,43.5432671 58.1019199,46.6276861 C57.8924714,47.3126577 57.795593,48.1156573 57.8481257,48.9684606 C57.88292,49.5210772 57.9777518,50.0457218 58.1176115,50.5232917 C58.118976,50.5874225 58.118976,50.6228991 58.118976,50.6228991 C58.118976,50.6228991 58.191976,51.0158708 58.4662375,51.4286277 C58.9942933,52.5127112 59.7993396,53.1942716 60.6603299,53.1410567 C62.063703,53.0571409 63.0802446,51.0506652 62.9342446,48.660087 C62.8980858,48.0842742 62.7964316,47.5391623 62.645656,47.0438541 Z M48.0402053,17.0783924 C51.0004562,17.0783924 53.3992213,14.1665807 53.3992213,10.5745732 C53.3992213,6.98324785 51.0004562,4.07143621 48.0402053,4.07143621 C45.0826834,4.07143621 42.683236,6.98324785 42.683236,10.5745732 C42.683236,14.1665807 45.0826834,17.0783924 48.0402053,17.0783924 Z" fill="#FFFFFF"></path>
                                <path d="M56.5989459,66.1531156 C57.522153,57.1881075 57.1768137,45.7550744 55.9048139,38.8149057 C55.4754421,34.1608831 54.3254622,27.1689134 51.2461868,23.0754916 C49.0256551,19.6324588 43.0823658,17.6951054 31.9843119,17.6951054 L31.7425744,17.6951054 C19.9446329,17.6951054 13.9725653,19.8822542 12.1008263,23.7408453 C9.37379695,27.8952771 8.3205121,34.4037717 7.91416286,38.8137546 C6.64216311,45.7550744 6.29797494,57.1881075 7.22003087,66.1531156 C6.96447979,66.9888367 6.7941124,67.9085904 6.73310246,68.880145 C6.48445816,72.913708 8.20309673,76.2991842 10.5686709,76.4407733 C12.0202471,76.5305615 13.3785817,75.3805817 14.2718593,73.5514345 C14.7357651,72.8550003 14.8566339,72.1919488 14.8566339,72.1919488 C14.8566339,72.1919488 14.857785,72.13209 14.857785,72.0250348 C15.0960691,71.218092 15.2549252,70.3328723 15.3136329,69.4004562 C15.4034211,67.9615424 15.2388094,66.6066613 14.8865633,65.4497746 C14.8819588,60.2466625 14.8197977,52.9300739 14.5435262,46.8210217 C15.332051,45.478803 16.0756816,43.950101 16.7652091,42.3304597 C17.9301536,49.9417379 17.5698496,58.4888855 17.3591927,61.8317699 C17.3373212,61.9411273 17.3189031,62.052787 17.3027872,62.1655979 C17.0564452,63.9337351 17.2532886,70.6010858 17.9209446,85.0926739 C18.1603798,90.2923326 20.7020771,123.744199 21.1694362,129.875123 C20.3440753,130.614149 19.8444845,131.568437 19.8444845,132.612512 C19.8444845,134.955064 22.3504966,135.271625 25.4389811,135.271625 C28.5309189,135.271625 31.0369311,134.955064 31.0369311,132.612512 C31.0369311,132.028889 30.8803773,131.472893 30.5983502,130.965244 L30.6593601,130.840922 L30.7364859,72.8734184 C30.7364859,72.8734184 30.6823828,69.9783239 31.8645943,68.9952581 C33.0491081,69.9783239 32.9961561,72.8734184 32.9961561,72.8734184 L33.0732818,130.840922 L33.1331406,130.965244 C32.8511136,131.472893 32.6945597,132.028889 32.6945597,132.612512 C32.6945597,134.955064 35.201723,135.271625 38.2902075,135.271625 C41.3821453,135.271625 43.8881575,134.955064 43.8881575,132.612512 C43.8881575,131.568437 43.3874155,130.614149 42.5620546,129.875123 C43.0294138,123.744199 45.571111,90.2923326 45.8105463,85.0926739 C46.4782022,70.6010858 46.6750456,63.9337351 46.4298547,62.1655979 C46.4114367,62.0412757 46.3895652,61.9181047 46.3642403,61.797236 C46.1535833,58.4152131 45.7944304,49.8001488 46.985851,42.1716037 C47.6926454,43.8499527 48.4592987,45.4339089 49.2754506,46.8198706 C48.9991791,52.9289228 48.9358669,60.2466625 48.9324135,65.4509257 C48.5790163,66.6066613 48.4155557,67.9615424 48.5041928,69.4004562 C48.5629005,70.3328723 48.7229077,71.218092 48.9588895,72.0238837 C48.9611918,72.13209 48.9611918,72.1919488 48.9611918,72.1919488 C48.9611918,72.1919488 49.0843628,72.8550003 49.5471175,73.5514345 C50.4380929,75.3805817 51.7964274,76.5305615 53.2491547,76.4407733 C55.6170312,76.2991842 57.3322164,72.913708 57.0858743,68.880145 C57.0248644,67.9085904 56.8533459,66.9888367 56.5989459,66.1531156" fill="#FFFFFF"></path>
                                <path d="M53.3532734,64.5111426 C54.1551145,56.7246851 53.8551739,46.7946523 52.7503928,40.7668465 C52.3774667,36.7246473 51.3786646,30.6518503 48.7041944,27.0965546 C46.7755764,24.106147 41.6135991,22.4234804 31.9745086,22.4234804 L31.7645502,22.4234804 C21.5175802,22.4234804 16.3306077,24.3231041 14.7049298,27.6744401 C12.336399,31.2827253 11.4215802,36.9356055 11.0686502,40.7658467 C9.96386902,46.7946523 9.66492825,56.7246851 10.4657696,64.5111426 C10.2438136,65.2369988 10.0958429,66.0358406 10.0428534,66.8796734 C9.82689616,70.3829794 11.3196004,73.3233969 13.3741934,73.4463725 C14.6349437,73.5243571 15.8147099,72.5255549 16.5905562,70.9368696 C16.9934764,70.3319895 17.0984556,69.7561036 17.0984556,69.7561036 C17.0984556,69.7561036 17.0994554,69.7041139 17.0994554,69.6111323 C17.3064144,68.9102711 17.4443871,68.1414234 17.495377,67.3315839 C17.5733615,66.0818315 17.4303899,64.9050646 17.1244505,63.9002636 C17.1204513,59.3811589 17.066462,53.0264178 16.8265095,47.7204689 C17.5113738,46.5546999 18.1572459,45.2269629 18.7561272,43.8202416 C19.7679268,50.430932 19.4549888,57.8544613 19.272025,60.7578862 C19.2530288,60.8528673 19.237032,60.9498481 19.2230347,61.0478287 C19.0090771,62.5835245 19.1800433,68.3743773 19.7599284,80.9608838 C19.9678872,85.4769892 22.1754499,114.531233 22.5813694,119.856178 C21.8645114,120.498051 21.4305974,121.326887 21.4305974,122.233707 C21.4305974,124.268304 23.6071662,124.54325 26.2896348,124.54325 C28.9751028,124.54325 31.1516716,124.268304 31.1516716,122.233707 C31.1516716,121.726808 31.0156986,121.243904 30.7707471,120.802991 L30.8237366,120.695012 L30.8907233,70.3479863 C30.8907233,70.3479863 30.8437326,67.8334844 31.8705292,66.9796536 C32.8993254,67.8334844 32.8533345,70.3479863 32.8533345,70.3479863 L32.9203212,120.695012 L32.9723109,120.802991 C32.7273595,121.243904 32.5913864,121.726808 32.5913864,122.233707 C32.5913864,124.268304 34.768955,124.54325 37.4514236,124.54325 C40.1368916,124.54325 42.3134604,124.268304 42.3134604,122.233707 C42.3134604,121.326887 41.8785466,120.498051 41.1616886,119.856178 C41.5676082,114.531233 43.7751708,85.4769892 43.9831296,80.9608838 C44.5630148,68.3743773 44.7339809,62.5835245 44.5210231,61.0478287 C44.5050263,60.9398501 44.48603,60.8328713 44.4640344,60.7278921 C44.2810706,57.790474 43.9691324,50.3079563 45.0039274,43.6822689 C45.6178058,45.1399801 46.2836739,46.5157076 46.9925335,47.7194691 C46.752581,53.025418 46.6975919,59.3811589 46.6945925,63.9012634 C46.3876533,64.9050646 46.2456814,66.0818315 46.3226662,67.3315839 C46.3736561,68.1414234 46.5126285,68.9102711 46.7175879,69.6101325 C46.7195875,69.7041139 46.7195875,69.7561036 46.7195875,69.7561036 C46.7195875,69.7561036 46.8265663,70.3319895 47.2284867,70.9368696 C48.0023334,72.5255549 49.1820997,73.5243571 50.4438497,73.4463725 C52.5004423,73.3233969 53.9901472,70.3829794 53.7761896,66.8796734 C53.7232001,66.0358406 53.5742296,65.2369988 53.3532734,64.5111426 Z M31.9495136,20.5978421 C36.2876542,20.5978421 39.8029578,16.3306874 39.8029578,11.0667302 C39.8029578,5.80377283 36.2876542,1.53661817 31.9495136,1.53661817 C27.6153722,1.53661817 24.0990688,5.80377283 24.0990688,11.0667302 C24.0990688,16.3306874 27.6153722,20.5978421 31.9495136,20.5978421 Z" fill="#444444"></path>
                            </g>
                        </g>
                    </g>
                </g>
                <g id="iconInstitution" transform="translate(241.000000, 487.000000)" sketch:type="MSShapeGroup">
                    <path d="M22.8862374,50.387611 L58.5530303,50.387611 L58.5530303,46.8093409 C58.5530303,46.3064974 58.4035384,45.9024267 58.0019183,45.5499873 C57.6025294,45.1975479 57.1518224,44.9955126 56.6497973,44.9955126 L25.2565332,44.9955126 C24.895904,47.1655797 24.1587213,48.8850544 22.8862374,50.387611 Z M22.7954545,23.4273613 L22.7954545,17.9878788 L29.9576796,17.9878788 L29.9576796,39.6034141 L33.5120174,39.6034141 L33.5120174,17.9878788 L40.6742424,17.9878788 L40.6742424,39.6034141 L44.2798984,39.6034141 L44.2798984,17.9878788 L51.4421234,17.9878788 L51.4421234,39.6034141 L53.0954595,39.6034141 C53.5952534,39.6034141 54.0459604,39.8054495 54.4475804,40.1578889 C54.7978824,40.5103283 54.9986925,40.914399 54.9986925,41.367856 L54.9986925,43.1816843 L25.4660986,43.1816843 C25.5140499,42.5105825 25.5363408,41.8002158 25.5363408,41.0456241 L25.5363408,27.528931 L25.5363408,23.9243791 L22.7954545,23.4273613 Z M19.2388855,23.2089122 L19.2388855,17.9878788 L12.0788917,17.9878788 L12.0788917,23.2081663 C14.4039411,23.207272 16.3712451,23.2071287 17.8880124,23.2078739 C18.3918975,23.2081214 18.842924,23.2084663 19.2388855,23.2089122 Z M8.52232263,14.4118535 C8.52232263,14.8653105 8.72313267,15.3187676 9.07343465,15.671207 C9.47282352,16.0236464 9.92353051,16.1740505 10.4255556,16.1740505 L53.0954595,16.1740505 C53.5952534,16.1740505 54.0459604,16.0236464 54.4475804,15.671207 C54.7978824,15.3187676 54.9986925,14.8653105 54.9986925,14.4118535 L58.5530303,14.4118535 L58.5530303,10.7819521 L31.7605075,0 L4.96575357,10.7819521 L4.96575357,14.4118535 L8.52232263,14.4118535 Z M31.9583333,12.72 C34.0918619,12.72 35.8214286,10.9798801 35.8214286,8.83333333 C35.8214286,6.68678661 34.0918619,4.94666667 31.9583333,4.94666667 C29.8248047,4.94666667 28.0952381,6.68678661 28.0952381,8.83333333 C28.0952381,10.9798801 29.8248047,12.72 31.9583333,12.72 Z" id="iconUniversity" fill="#C7C7C2"></path>
                    <path d="M21.0714286,27.7473199 L21.0714286,41.0374024 C21.0714286,46.2548259 20.2064895,48.0262691 14.6131321,50.8050713 C14.3654412,50.9290131 11.5143754,52.3596182 11.216229,52.5204792 L10.9377406,52.6707916 L10.6520443,52.8217633 L10.3670032,52.6707916 L10.0813069,52.5204792 C8.90575827,51.9007698 7.71251743,51.3562168 6.78597018,50.8993462 C1.66112985,48.3697462 0.102890981,46.5739082 0.102890981,41.0374024 L0.102890975,27.7473199 C0.102890975,27.7473199 20.9587242,27.7268826 21.0714286,27.7473199 Z" id="iconUniversitySheild" fill="#444444"></path>
                </g>
                <g id="iconNetwork" transform="translate(488.000000, 483.000000)" sketch:type="MSShapeGroup">
                    <path d="M36.9273504,25.2485162 C37.7593066,25.898747 38.7706517,26.5002594 39.9845008,27.0969442 C39.8717137,27.0415593 41.5330039,27.8380202 41.9915148,28.0748638 C42.0558566,28.1081855 42.0558566,28.1081855 42.1195232,28.141516 L42.3137633,28.2432915 L42.4971728,28.3400484 L44.0322218,29.1497392 L45.5680344,28.3415036 L45.759904,28.2405305 L45.9724877,28.1264062 C46.0055521,28.1086402 46.2642108,27.9778129 46.6324855,27.7926465 C47.0988673,29.6006673 47.3321918,31.4884867 47.3321918,33.4502183 C47.3321918,37.4645197 46.3551774,41.1165939 44.4034366,44.5141921 C42.4013579,47.9094978 39.7311569,50.5849345 36.3928336,52.5405022 C33.0018843,54.4960699 29.3043309,55.475 25.3505115,55.475 C21.3440659,55.475 17.6465125,54.4960699 14.2578513,52.5405022 C10.919528,50.5849345 8.24932703,47.9094978 6.24496022,44.5141921 C5.09906515,42.5194133 4.28995018,40.4369158 3.81715224,38.2448929 C4.31896546,38.4854395 5.7140313,39.1577946 6.16436464,39.3904141 C6.24414456,39.4317311 6.24414456,39.4317311 6.32298022,39.4730028 L6.56833743,39.6015622 L6.79850865,39.7229902 L8.96001699,40.8631189 L11.1226007,39.7250393 L11.3646198,39.5976744 L11.6365171,39.4517267 C11.6859936,39.4251422 12.2575244,39.1366722 12.9743289,38.7772282 C13.5028599,38.5121945 14.1898456,38.168614 14.3867174,38.0705069 C15.1602674,37.6877886 15.866722,37.3055057 16.5106991,36.9168548 C16.5161961,36.9669774 16.5161961,37.0288735 16.5161961,37.1022926 C16.5688222,37.2054585 16.5688222,37.3086245 16.6191601,37.4117904 C16.6717862,37.4645197 16.7221242,37.5149563 16.8250882,37.4645197 C16.8488013,37.2938828 16.8161532,37.0667743 16.7211641,36.788227 C16.9494118,36.646943 17.1695326,36.5047256 17.3817456,36.3612517 C17.4880574,36.4751405 17.577095,36.6449432 17.6968505,36.845524 C17.8524406,37.1022926 17.8524406,37.2581878 17.6968505,37.2581878 C17.8524406,37.2581878 18.0583687,37.3086245 18.2620087,37.5149563 C18.4679368,37.7212882 18.6738649,37.9276201 18.776829,38.0812227 C18.879793,38.2348253 18.930131,38.4938865 18.9827571,38.853821 C19.0330951,39.1610262 19.083433,39.4200873 19.1360591,39.5209607 C19.1863971,39.6768559 19.2390232,39.7800218 19.3923252,39.9336245 C19.4952892,40.0367904 19.6485913,40.1399563 19.7515553,40.190393 C19.8545194,40.2431223 20.0101095,40.3462882 20.2137495,40.3967249 C20.3693396,40.4998908 20.5226416,40.6030568 20.5729796,40.6030568 C20.6759437,40.6534934 20.8315338,40.7566594 21.0877998,40.910262 C21.3440659,41.0661572 21.549994,41.2197598 21.703296,41.2724891 C21.9092241,41.3229258 22.0625262,41.375655 22.1654902,41.375655 C22.2684543,41.375655 22.4240444,41.3229258 22.5773464,41.2724891 C22.7306484,41.2724891 22.8862386,41.2197598 22.9869145,41.2197598 C23.2454687,41.1693231 23.5520727,41.3229258 23.8106269,41.6324236 C24.066893,41.9396288 24.270533,42.1459607 24.4261231,42.2491266 C25.0942454,42.6090611 25.6067775,42.7122271 25.9660077,42.5586245 C25.9660077,42.5586245 25.9660077,42.6617904 26.0186337,42.7649563 C26.0689717,42.8658297 26.1215978,43.0217249 26.2222737,43.2280568 C26.3252378,43.3816594 26.4282018,43.535262 26.4808279,43.6384279 C26.5311659,43.7415939 26.5837919,43.7920306 26.6341299,43.8447598 C26.737094,43.9983624 26.890396,44.1015284 27.1489502,44.3078603 C27.4052162,44.4614629 27.5585183,44.6173581 27.6614823,44.7182314 C27.8147844,44.6677948 27.8674104,44.5646288 27.8674104,44.4614629 C27.8147844,44.6173581 27.8674104,44.8213974 28.0733385,45.0277293 C28.2769785,45.2844978 28.4325686,45.3876638 28.5858707,45.3372271 C28.8421367,45.2844978 28.9954388,44.9772926 28.9954388,44.4110262 C28.3799426,44.7182314 27.9177484,44.5141921 27.6088563,43.8951965 C27.6088563,43.8951965 27.5585183,43.8447598 27.5081803,43.7415939 C27.4555542,43.6384279 27.4555542,43.5879913 27.4052162,43.4848253 C27.3525902,43.4320961 27.3525902,43.3289301 27.3525902,43.2280568 C27.3022522,43.1753275 27.3022522,43.0721616 27.3525902,43.0217249 C27.3525902,42.9689956 27.4052162,42.9689956 27.4555542,42.9689956 C27.6614823,42.9689956 27.7644464,42.918559 27.7644464,42.8658297 C27.7644464,42.7649563 27.7644464,42.6617904 27.7118203,42.5058952 C27.6614823,42.2995633 27.6088563,42.19869 27.6088563,42.095524 C27.5585183,41.9396288 27.4555542,41.7860262 27.3022522,41.5292576 C27.0963241,41.3229258 26.9933601,41.1693231 26.9430221,41.1165939 C26.840058,41.2724891 26.6844679,41.375655 26.4808279,41.3229258 C26.2748998,41.3229258 26.1215978,41.2197598 26.0186337,41.0661572 C26.0186337,41.1165939 26.0186337,41.1693231 25.9660077,41.2197598 C25.9660077,41.3229258 25.9156697,41.375655 25.9156697,41.4260917 C25.6594036,41.4260917 25.5564396,41.4260917 25.5038135,41.375655 C25.5038135,41.3229258 25.5564396,41.1693231 25.5564396,40.910262 C25.6067775,40.6030568 25.6594036,40.3967249 25.6594036,40.2431223 C25.7097416,40.190393 25.7600796,40.0367904 25.8127056,39.8831878 C25.9156697,39.7272926 25.9660077,39.6241266 26.0689717,39.470524 C26.1215978,39.3673581 26.1215978,39.2641921 26.1719358,39.1105895 C26.1719358,39.0074236 26.1215978,38.9042576 26.0186337,38.853821 C25.9156697,38.8010917 25.7600796,38.750655 25.5038135,38.8010917 C25.1445834,38.8010917 24.9386553,39.0074236 24.7853532,39.3673581 C24.7853532,39.4200873 24.7350153,39.5209607 24.6823892,39.6768559 C24.6823892,39.7800218 24.6320512,39.9336245 24.5794251,39.9840611 C24.4764611,40.0872271 24.4261231,40.1399563 24.270533,40.190393 C24.169857,40.2431223 23.9113029,40.2431223 23.6046988,40.2431223 C23.2958067,40.2431223 23.0395406,40.190393 22.9365765,40.0872271 C22.6803105,39.9336245 22.4743824,39.6768559 22.2684543,39.2641921 C22.1151522,38.853821 22.0121882,38.4938865 22.0121882,38.1843886 C22.0121882,38.030786 22.0121882,37.7717249 22.0625262,37.4645197 C22.1151522,37.1550218 22.1654902,36.8982533 22.1654902,36.7423581 C22.1654902,36.5887555 22.1151522,36.3319869 22.0121882,36.0224891 C22.0625262,35.9720524 22.1654902,35.9193231 22.2684543,35.7657205 C22.3714183,35.6121179 22.4743824,35.508952 22.5247203,35.4562227 C22.5773464,35.4562227 22.6276844,35.405786 22.6803105,35.405786 L22.7832745,35.405786 C22.8336125,35.405786 22.8862386,35.405786 22.9365765,35.3530568 C22.9365765,35.3026201 22.9869145,35.2498908 22.9869145,35.1994541 C22.9869145,35.1994541 22.9365765,35.1490175 22.8862386,35.0962882 C22.8336125,35.0458515 22.7832745,35.0458515 22.7832745,35.0458515 C22.9365765,35.0962882 23.1928426,35.0458515 23.6046988,34.9931223 C24.0142669,34.8899563 24.270533,34.8899563 24.373497,35.0458515 C24.6823892,35.2498908 24.8883173,35.1994541 24.9912813,34.9426856 C24.9912813,34.9426856 24.9912813,34.8395197 24.9386553,34.685917 C24.8883173,34.5300218 24.8883173,34.3764192 24.9386553,34.32369 C25.0416193,34.8395197 25.2978854,34.8899563 25.7600796,34.5827511 C25.8127056,34.6331878 25.9660077,34.685917 26.2222737,34.685917 C26.4282018,34.7363537 26.5837919,34.7867904 26.6844679,34.8395197 C26.737094,34.8899563 26.840058,34.9426856 26.890396,34.9931223 C26.9933601,35.0962882 27.0459861,35.0962882 27.0459861,35.1490175 L27.1992881,35.1490175 C27.2496261,35.0962882 27.3525902,35.0458515 27.4555542,34.9426856 C27.6614823,35.1994541 27.7644464,35.4562227 27.8147844,35.6121179 C28.0207124,36.3824236 28.1740145,36.7950873 28.3296046,36.8982533 C28.4829066,36.94869 28.5858707,36.94869 28.6362086,36.94869 C28.7391727,36.94869 28.7917988,36.845524 28.7917988,36.6919214 L28.7917988,36.2792576 C28.7917988,36.1760917 28.7391727,36.0224891 28.7391727,35.9193231 L28.6888347,35.6625546 L28.6888347,35.1490175 L28.6888347,34.9426856 C28.3799426,34.8899563 28.2266405,34.7867904 28.1740145,34.5827511 C28.0733385,34.4268559 28.1236765,34.2228166 28.1740145,34.0669214 C28.2769785,33.8605895 28.4325686,33.7069869 28.6362086,33.5533843 C28.6362086,33.500655 28.7391727,33.500655 28.8421367,33.4502183 C28.9954388,33.3974891 29.1510289,33.2966157 29.3043309,33.2438865 C29.459921,33.1407205 29.560597,33.0902838 29.663561,32.9871179 C30.0754172,32.6271834 30.1783813,32.3176856 30.0754172,32.0081878 C30.2287193,32.0081878 30.3316833,31.9050218 30.3843094,31.7514192 C30.3843094,31.7514192 30.3316833,31.7009825 30.2813453,31.6482533 C30.1783813,31.5978166 30.1257552,31.5450873 30.0227912,31.4946507 C29.9724532,31.4946507 29.9221152,31.4419214 29.9221152,31.4419214 C30.0754172,31.341048 30.1257552,31.2378821 29.9724532,30.978821 C30.0754172,30.9283843 30.1257552,30.8252183 30.1783813,30.6716157 C30.2287193,30.5157205 30.2813453,30.4148472 30.3843094,30.4148472 C30.5879494,30.6188865 30.7938775,30.6716157 30.9998056,30.4652838 C31.1531076,30.3116812 31.1531076,30.155786 31.0501436,30.0021834 C31.1027696,29.8485808 31.3086977,29.7454148 31.6153018,29.6926856 C31.9241939,29.6422489 32.077496,29.539083 32.130122,29.435917 C32.2834241,29.435917 32.333762,29.435917 32.3863881,29.3854803 L32.3863881,29.0255459 C32.3863881,28.8696507 32.4367261,28.7664847 32.4893522,28.6633188 C32.5923162,28.5601528 32.6952803,28.5097162 32.8989203,28.4065502 C33.1574744,28.3561135 33.2581504,28.3033843 33.3107765,28.2529476 L33.7729706,27.9434498 C33.8233086,27.8930131 33.8233086,27.8402838 33.7729706,27.8402838 C34.1322008,27.8930131 34.4410929,27.7898472 34.647021,27.5330786 C34.850661,27.3267467 34.800323,27.1204148 34.4914309,26.9668122 C34.5440569,26.8636463 34.5440569,26.7604803 34.3884668,26.6573144 C34.2855028,26.6068777 34.1322008,26.5541485 33.9788987,26.5037118 L34.3381289,26.5037118 C34.4914309,26.5037118 34.5943949,26.5037118 34.5943949,26.4509825 C34.9032871,26.2973799 34.850661,26.1437773 34.3884668,25.9878821 C34.0818628,25.8847162 33.6700066,26.0406114 33.1574744,26.3478166 C33.1574744,26.3478166 33.0545104,26.4509825 32.8989203,26.6068777 C32.7456182,26.7604803 32.6426542,26.8636463 32.5396901,26.914083 C32.5396901,26.914083 32.5923162,26.8636463 32.6426542,26.7604803 C32.6952803,26.6573144 32.7456182,26.5541485 32.7982443,26.4509825 C32.8485823,26.2973799 32.8989203,26.2446507 32.8989203,26.2446507 C33.0018843,26.091048 33.2078124,25.9374454 33.5167046,25.7815502 C33.7729706,25.6806769 34.2855028,25.5775109 35.0062511,25.474345 C35.6720853,25.3184498 36.1365676,25.4216157 36.4957977,25.7815502 C36.4431716,25.7311135 36.5461357,25.6279476 36.7520638,25.4216157 C36.8160829,25.3581837 36.875016,25.2994047 36.9273504,25.2485162 Z M34.2301149,21.6111926 C33.8284374,20.4659116 33.6502449,19.1353216 33.6502449,17.53342 L33.6502449,12.9857168 C31.0361173,11.9048814 28.2628338,11.375 25.3505115,11.375 C24.359585,11.375 23.3875545,11.4347445 22.4344202,11.5550313 L22.4344202,14.450646 L22.4344202,15.9170555 C22.4648412,15.8613813 22.4947808,15.787865 22.5247203,15.6965066 C22.6803105,15.5933406 22.8336125,15.5429039 23.0898786,15.5933406 C23.3461446,15.5933406 23.5520727,15.6460699 23.7076629,15.7492358 C24.220195,16.0060044 24.270533,16.2627729 23.9113029,16.5195415 C24.117231,16.5195415 24.3231591,16.5722707 24.6320512,16.7258734 C24.8883173,16.879476 24.9912813,16.9826419 24.9386553,17.1385371 C25.0942454,16.879476 25.2475474,16.7258734 25.4008494,16.7258734 C25.5038135,16.7258734 25.5564396,16.879476 25.6594036,17.1385371 C25.7600796,17.3425764 25.8127056,17.4984716 25.8127056,17.4984716 C25.9660077,17.7025109 26.1215978,17.7552402 26.2748998,17.6520742 C26.4282018,17.5489083 26.5837919,17.3425764 26.737094,17.1385371 C26.890396,16.9322052 26.9933601,16.8290393 27.0459861,16.8290393 C26.840058,16.77631 26.787432,16.6754367 26.9430221,16.6227074 C27.2496261,16.4163755 27.5081803,16.4163755 27.7118203,16.4691048 C27.8147844,16.5195415 27.8674104,16.5722707 27.9703745,16.7258734 C28.1236765,17.0858079 28.1236765,17.2394105 27.8674104,17.2394105 C28.0733385,17.3953057 28.1236765,17.5489083 28.0733385,17.8056769 C28.0733385,18.0120087 27.9177484,18.1151747 27.6614823,18.1151747 C27.5585183,18.1151747 27.4052162,18.064738 27.2496261,17.9615721 C27.0459861,17.8584061 26.890396,17.8056769 26.840058,17.8056769 C26.737094,17.8056769 26.5837919,17.8584061 26.4282018,17.9615721 C26.3252378,18.064738 26.2222737,18.2183406 26.1215978,18.4751092 C26.0186337,18.681441 25.8630436,18.8350437 25.8127056,18.9382096 C25.5038135,19.2477074 25.0416193,19.3508734 24.373497,19.2477074 C24.4261231,19.2477074 24.4261231,19.2981441 24.3231591,19.4540393 C24.270533,19.5572052 24.169857,19.6580786 24.066893,19.8139738 C23.9639289,19.9675764 23.8609649,20.0203057 23.8609649,20.0707424 C23.7076629,20.2770742 23.6046988,20.4834061 23.5017348,20.7401747 L23.5017348,21.1001092 C23.4491087,21.306441 23.4491087,21.5104803 23.3987707,21.6136463 C23.6046988,21.5632096 23.8106269,21.6663755 23.9113029,21.9735808 C24.0142669,22.2326419 24.0142669,22.3862445 23.9113029,22.3862445 C24.5794251,22.2830786 25.0942454,22.3358079 25.6067775,22.4894105 C26.2748998,22.746179 26.6844679,23.0029476 26.737094,23.2620087 C26.890396,23.0556769 27.1489502,23.0556769 27.6088563,23.2092795 C27.7644464,23.3124454 27.9177484,23.6219432 28.0733385,24.0850437 C28.1236765,24.3922489 28.2769785,24.5985808 28.4325686,24.8049127 C28.6362086,25.0616812 28.7917988,25.1144105 29.0480648,25.0112445 L29.0984028,24.9585153 C29.2013669,24.9080786 29.2539929,24.8553493 29.3043309,24.8553493 C29.356957,24.8049127 29.407295,24.754476 29.459921,24.7017467 C29.510259,24.7017467 29.560597,24.65131 29.560597,24.5985808 C29.560597,24.5481441 29.560597,24.4954148 29.510259,24.4954148 C29.356957,24.3922489 29.2539929,24.1882096 29.2013669,24.0323144 C29.1510289,23.8259825 29.1510289,23.6219432 29.2539929,23.466048 C29.3043309,23.4156114 29.459921,23.2620087 29.7161871,23.1588428 C29.9724532,23.0029476 30.1257552,22.849345 30.1783813,22.6957424 C30.2287193,22.4366812 30.1783813,22.2326419 29.8694891,22.0767467 C29.6132231,21.8727074 29.459921,21.7695415 29.459921,21.6136463 C29.459921,21.5104803 29.560597,21.409607 29.663561,21.2537118 C29.8191512,21.1505459 29.8694891,20.9969432 29.8191512,20.8937773 C29.8191512,20.8433406 29.8191512,20.7401747 29.7161871,20.5338428 C29.663561,20.3275109 29.6132231,20.224345 29.6132231,20.121179 C29.6132231,20.0707424 29.663561,19.9675764 29.7665251,19.8139738 C29.8694891,19.7612445 30.1783813,19.7612445 30.6909134,19.8644105 C31.2057337,19.9171397 31.5123377,20.0203057 31.6679279,20.121179 C31.7182658,20.1739083 31.8212299,20.224345 32.027158,20.2770742 C32.2330861,20.3802402 32.3863881,20.4306769 32.5396901,20.5338428 C32.6952803,20.6370087 32.7456182,20.6874454 32.7982443,20.7906114 L32.6426542,20.7906114 C32.7456182,20.8937773 32.8485823,21.0496725 32.8989203,21.2032751 C32.8989203,21.3568777 32.8485823,21.4600437 32.6426542,21.5104803 C32.7982443,21.5104803 32.9515463,21.5104803 33.1048484,21.6136463 C33.4137405,21.7168122 33.4137405,21.8199782 33.1574744,21.9231441 C33.2078124,21.9231441 33.3107765,21.8727074 33.4137405,21.8727074 C33.5167046,21.8727074 33.5670425,21.8199782 33.6196686,21.7695415 C33.6700066,21.7695415 33.7226326,21.7168122 33.7729706,21.6663755 C33.8233086,21.6136463 33.8759347,21.6136463 33.9262727,21.6136463 C33.9262727,21.5632096 33.9788987,21.5632096 34.0292367,21.5632096 C34.0809952,21.5632096 34.1305403,21.5632096 34.2301149,21.6111926 Z M22.4344202,16.1896789 L22.4344202,17.2817653 C22.4842272,17.3730867 22.5417678,17.5125805 22.5773464,17.6520742 C22.6276844,17.9088428 22.7306484,18.064738 22.8336125,18.1656114 C22.9365765,18.064738 22.9365765,17.9615721 22.8862386,17.7552402 C22.8336125,17.5489083 22.8336125,17.4457424 22.8862386,17.3425764 C22.9365765,17.3425764 22.9869145,17.2921397 23.0395406,17.2394105 C23.1425046,17.1889738 23.2454687,17.1889738 23.3987707,17.1385371 C23.5017348,17.0858079 23.6046988,17.0353712 23.6550368,17.0353712 C23.7580008,16.9322052 23.6550368,16.8290393 23.3987707,16.6227074 C23.3461446,16.5722707 23.2958067,16.5722707 23.1425046,16.5195415 C23.0395406,16.4691048 22.9365765,16.4691048 22.8336125,16.4163755 C22.7306484,16.3659389 22.6276844,16.3132096 22.5247203,16.2627729 C22.4882381,16.244496 22.4580654,16.219295 22.4344202,16.1896789 Z M28.6362086,50.4313319 C28.7917988,50.1745633 28.8947628,50.0186681 28.8947628,49.8650655 C28.5858707,49.8146288 28.4829066,49.5555677 28.5355327,49.1451965 C28.5858707,48.8356987 28.8421367,48.4757642 29.356957,47.9622271 C29.7161871,47.6527293 29.8694891,47.1896288 29.7161871,46.5706332 C29.663561,46.3665939 29.6132231,46.0066594 29.560597,45.4908297 C29.510259,45.0277293 29.510259,44.6677948 29.459921,44.5141921 C29.459921,44.5646288 29.560597,44.6173581 29.7161871,44.6677948 C29.9221152,44.7182314 30.0227912,44.7709607 30.0754172,44.8213974 C30.0754172,44.7709607 30.1257552,44.6677948 30.1783813,44.5141921 C30.2813453,44.3582969 30.3316833,44.255131 30.3843094,44.2046943 C30.4346474,44.1015284 30.4872734,44.0510917 30.6405755,43.9479258 C30.7435395,43.8951965 30.8465036,43.8447598 30.8465036,43.7920306 C30.8968415,43.7920306 30.9998056,43.7415939 31.1027696,43.6384279 C31.2560717,43.535262 31.3590357,43.4320961 31.4619998,43.3816594 C31.5123377,43.3289301 31.6679279,43.2784934 31.7708919,43.2280568 C31.9241939,43.2280568 32.027158,43.2784934 32.077496,43.3816594 C32.18046,43.4848253 32.18046,43.6911572 32.027158,43.8951965 C31.9241939,44.1542576 31.9241939,44.3078603 32.027158,44.4110262 C32.077496,44.3582969 32.077496,44.2046943 32.077496,44.0510917 C32.130122,43.8447598 32.18046,43.6911572 32.2834241,43.5879913 C32.3863881,43.4848253 32.4893522,43.4320961 32.5923162,43.3816594 C32.6952803,43.3816594 32.7982443,43.3816594 32.8989203,43.4320961 C32.9515463,43.4848253 33.0545104,43.5879913 33.1574744,43.6384279 C33.3107765,43.7415939 33.4137405,43.7920306 33.5167046,43.7920306 C33.7729706,43.8951965 34.1322008,44.1015284 34.5440569,44.4614629 C34.4914309,44.4110262 34.4914309,44.4110262 34.5440569,44.3582969 C34.5440569,44.3582969 34.5943949,44.3078603 34.647021,44.3078603 C34.697359,44.255131 34.747697,44.2046943 34.800323,44.2046943 C34.850661,44.1542576 34.9032871,44.1542576 34.9536251,44.1015284 L35.0565891,44.1015284 C35.1595531,44.1015284 35.2625172,44.1015284 35.3128552,44.0510917 C35.3654812,44.0510917 35.4684453,44.0510917 35.5714093,44.1015284 C35.6720853,44.2046943 35.7750494,44.2046943 35.7750494,44.255131 C35.8276754,44.3078603 35.8780134,44.3582969 35.9809774,44.4110262 C36.0839415,44.5141921 36.1365676,44.5646288 36.1869055,44.5646288 C36.2372435,44.6173581 36.3402076,44.6677948 36.4957977,44.7709607 C36.6490997,44.8741266 36.8024017,44.9772926 36.8550278,45.0277293 C36.9579919,45.0804585 37.0083298,45.1813319 37.1112939,45.2844978 C37.1616319,45.3876638 37.1616319,45.4908297 37.1616319,45.6444323 C37.2645959,45.6444323 37.520862,45.7475983 37.8297541,45.8507642 C37.9327182,45.9034934 38.0356822,45.9539301 38.1889843,45.9539301 C38.3949124,46.0066594 38.4978764,46.0570961 38.5482144,46.1075328 C35.7750494,49.0420306 32.4367261,50.8417031 28.5355327,51.5111354 C28.4829066,51.3575328 28.4325686,51.2039301 28.4325686,51.0480349 C28.4325686,50.944869 28.4829066,50.7408297 28.6362086,50.4313319 Z" id="Path" fill="#C7C7C2"></path>
                    <path d="M17.5894639,14.6949387 L17.5894639,25.6550418 C17.5894639,29.9577615 16.8732156,31.4186403 12.2414061,33.7102707 C12.0362955,33.8124834 9.67535326,34.9922789 9.42846088,35.1249382 L9.19784712,35.2488983 L8.96126454,35.3734021 L8.72522458,35.2488983 L8.488642,35.1249382 C7.51518063,34.6138744 6.52706851,34.164791 5.75980298,33.7880176 C1.51596832,31.7018999 0.225604581,30.2209032 0.225604581,25.6550418 L0.225604575,14.6949387 C0.225604575,14.6949387 17.4961344,14.6780845 17.5894639,14.6949387 Z M22.0957799,0.641938047 L22.0957799,6.3307295 C22.0957799,8.56403648 21.7240144,9.32229895 19.3198949,10.5117593 C19.2134332,10.5648123 17.9879969,11.1771798 17.8598485,11.246036 L17.7401495,11.3103769 L17.6173524,11.375 L17.4948369,11.3103769 L17.3720398,11.246036 C16.8667691,10.9807707 16.3538941,10.7476759 15.9556484,10.5521134 C13.7529054,9.46932358 13.083148,8.70061898 13.083148,6.3307295 L13.083148,0.641938047 C13.083148,0.641938047 22.0473376,0.633189941 22.0957799,0.641938047 Z M50.7001589,9.04926417 L50.7001589,17.5196794 C50.7001589,20.8449968 50.1466129,21.9740236 46.5669614,23.7450892 C46.4084436,23.8240833 44.583811,24.7358775 44.3930025,24.838402 L44.2147748,24.9342034 L44.0319341,25.030425 L43.8495128,24.9342034 L43.6666721,24.838402 C42.9143414,24.443431 42.150688,24.096361 41.5577139,23.8051751 C38.2779051,22.1929382 37.2806594,21.0483635 37.2806594,17.5196794 L37.2806594,9.04926417 C37.2806594,9.04926417 50.62803,9.03623854 50.7001589,9.04926417 Z" id="iconMapMarker" fill="#444444"></path>
                </g>
            </g>
        </g>
    </g>
</svg>